<?xml version="1.0" encoding="UTF-8" standalone="no"?>
<!DOCTYPE svg PUBLIC "-//W3C//DTD SVG 1.1//EN"
 "http://www.w3.org/Graphics/SVG/1.1/DTD/svg11.dtd">
<!-- Generated by graphviz version 2.43.0 (0)
 -->
<!-- Title: CoAP_Server::Main_Loop Pages: 1 -->
<svg width="600pt" height="368pt"
 viewBox="0.00 0.00 600.40 368.40" xmlns="http://www.w3.org/2000/svg" xmlns:xlink="http://www.w3.org/1999/xlink">
<g id="graph0" class="graph" transform="scale(1 1) rotate(0) translate(7.2 361.2)">
<title>CoAP_Server::Main_Loop</title>
<polygon fill="transparent" stroke="transparent" points="-7.2,7.2 -7.2,-361.2 593.2,-361.2 593.2,7.2 -7.2,7.2"/>
<!-- Receive_Request -->
<g id="node1" class="node">
<title>Receive_Request</title>
<path fill="#ffffff" stroke="#6f6f6f" d="M311.5,-354C311.5,-354 212.5,-354 212.5,-354 206.5,-354 200.5,-348 200.5,-342 200.5,-342 200.5,-330 200.5,-330 200.5,-324 206.5,-318 212.5,-318 212.5,-318 311.5,-318 311.5,-318 317.5,-318 323.5,-324 323.5,-330 323.5,-330 323.5,-342 323.5,-342 323.5,-348 317.5,-354 311.5,-354"/>
<text text-anchor="middle" x="262" y="-332.3" font-family="Arimo" font-size="14.00">Receive_Request</text>
</g>
<!-- Treat_Request -->
<g id="node2" class="node">
<title>Treat_Request</title>
<path fill="#009641" stroke="#6f6f6f" d="M304,-274.5C304,-274.5 220,-274.5 220,-274.5 214,-274.5 208,-268.5 208,-262.5 208,-262.5 208,-250.5 208,-250.5 208,-244.5 214,-238.5 220,-238.5 220,-238.5 304,-238.5 304,-238.5 310,-238.5 316,-244.5 316,-250.5 316,-250.5 316,-262.5 316,-262.5 316,-268.5 310,-274.5 304,-274.5"/>
<text text-anchor="middle" x="262" y="-252.8" font-family="Arimo" font-size="14.00" fill="#ffffff">Treat_Request</text>
</g>
<!-- Receive_Request&#45;&gt;Treat_Request -->
<g id="edge1" class="edge">
<title>Receive_Request&#45;&gt;Treat_Request</title>
<g id="a_edge1"><a xlink:title="Receive_Request → Treat_Request&#10;&#10;[0] Request&#39;Valid">
<path fill="none" stroke="#6f6f6f" stroke-width="2.5" d="M262,-317.8C262,-308.07 262,-295.68 262,-284.66"/>
<polygon fill="#6f6f6f" stroke="#6f6f6f" stroke-width="2.5" points="265.5,-284.65 262,-274.65 258.5,-284.65 265.5,-284.65"/>
</a>
</g>
</g>
<!-- Failure -->
<g id="node3" class="node">
<title>Failure</title>
<path fill="#009641" stroke="#6f6f6f" d="M272,-115.5C272,-115.5 188,-115.5 188,-115.5 182,-115.5 176,-109.5 176,-103.5 176,-103.5 176,-91.5 176,-91.5 176,-85.5 182,-79.5 188,-79.5 188,-79.5 272,-79.5 272,-79.5 278,-79.5 284,-85.5 284,-91.5 284,-91.5 284,-103.5 284,-103.5 284,-109.5 278,-115.5 272,-115.5"/>
<text text-anchor="middle" x="230" y="-93.8" font-family="Arimo" font-size="14.00" fill="#ffffff">Failure</text>
</g>
<!-- Receive_Request&#45;&gt;Failure -->
<g id="edge2" class="edge">
<title>Receive_Request&#45;&gt;Failure</title>
<path fill="none" stroke="#6f6f6f" stroke-width="2.5" d="M200.24,-334.98C122.78,-333.26 0,-324.12 0,-283.5 0,-283.5 0,-283.5 0,-176 0,-140.88 97.52,-118.64 165.56,-107.39"/>
<polygon fill="#6f6f6f" stroke="#6f6f6f" stroke-width="2.5" points="166.47,-110.79 175.78,-105.75 165.36,-103.88 166.47,-110.79"/>
</g>
<!-- Treat_Request&#45;&gt;Failure -->
<g id="edge6" class="edge">
<title>Treat_Request&#45;&gt;Failure</title>
<path fill="none" stroke="#6f6f6f" stroke-width="2.5" d="M234.08,-238.4C223.52,-229.67 214,-217.93 214,-204 214,-204 214,-204 214,-150 214,-141.8 215.87,-133.18 218.34,-125.39"/>
<polygon fill="#6f6f6f" stroke="#6f6f6f" stroke-width="2.5" points="221.72,-126.32 221.81,-115.73 215.14,-123.95 221.72,-126.32"/>
</g>
<!-- Success_Response -->
<g id="node4" class="node">
<title>Success_Response</title>
<path fill="#009641" stroke="#6f6f6f" d="M366,-195C366,-195 254,-195 254,-195 248,-195 242,-189 242,-183 242,-183 242,-171 242,-171 242,-165 248,-159 254,-159 254,-159 366,-159 366,-159 372,-159 378,-165 378,-171 378,-171 378,-183 378,-183 378,-189 372,-195 366,-195"/>
<text text-anchor="middle" x="310" y="-173.3" font-family="Arimo" font-size="14.00" fill="#ffffff">Success_Response</text>
</g>
<!-- Treat_Request&#45;&gt;Success_Response -->
<g id="edge3" class="edge">
<title>Treat_Request&#45;&gt;Success_Response</title>
<g id="a_edge3"><a xlink:title="Treat_Request → Success_Response&#10;&#10;[0] Definite_Response.Message_Class = CoAP::Success">
<path fill="none" stroke="#6f6f6f" stroke-width="2.5" d="M272.65,-238.3C278.93,-228.17 286.99,-215.15 294.02,-203.8"/>
<polygon fill="#6f6f6f" stroke="#6f6f6f" stroke-width="2.5" points="297.09,-205.5 299.38,-195.15 291.14,-201.81 297.09,-205.5"/>
</a>
</g>
</g>
<!-- Client_Error_Response -->
<g id="node5" class="node">
<title>Client_Error_Response</title>
<path fill="#009641" stroke="#6f6f6f" d="M173.5,-195C173.5,-195 40.5,-195 40.5,-195 34.5,-195 28.5,-189 28.5,-183 28.5,-183 28.5,-171 28.5,-171 28.5,-165 34.5,-159 40.5,-159 40.5,-159 173.5,-159 173.5,-159 179.5,-159 185.5,-165 185.5,-171 185.5,-171 185.5,-183 185.5,-183 185.5,-189 179.5,-195 173.5,-195"/>
<text text-anchor="middle" x="107" y="-173.3" font-family="Arimo" font-size="14.00" fill="#ffffff">Client_Error_Response</text>
</g>
<!-- Treat_Request&#45;&gt;Client_Error_Response -->
<g id="edge4" class="edge">
<title>Treat_Request&#45;&gt;Client_Error_Response</title>
<g id="a_edge4"><a xlink:title="Treat_Request → Client_Error_Response&#10;&#10;[1] Definite_Response.Message_Class = CoAP::Client_Error">
<path fill="none" stroke="#6f6f6f" stroke-width="2.5" d="M217.66,-238.44C211.67,-235.9 205.65,-233.22 200,-230.5 181.11,-221.41 160.77,-210.11 143.94,-200.32"/>
<polygon fill="#6f6f6f" stroke="#6f6f6f" stroke-width="2.5" points="145.38,-197.11 134.98,-195.06 141.83,-203.14 145.38,-197.11"/>
</a>
</g>
</g>
<!-- Server_Error_Response -->
<g id="node6" class="node">
<title>Server_Error_Response</title>
<path fill="#009641" stroke="#6f6f6f" d="M546,-195C546,-195 408,-195 408,-195 402,-195 396,-189 396,-183 396,-183 396,-171 396,-171 396,-165 402,-159 408,-159 408,-159 546,-159 546,-159 552,-159 558,-165 558,-171 558,-171 558,-183 558,-183 558,-189 552,-195 546,-195"/>
<text text-anchor="middle" x="477" y="-173.3" font-family="Arimo" font-size="14.00" fill="#ffffff">Server_Error_Response</text>
</g>
<!-- Treat_Request&#45;&gt;Server_Error_Response -->
<g id="edge5" class="edge">
<title>Treat_Request&#45;&gt;Server_Error_Response</title>
<g id="a_edge5"><a xlink:title="Treat_Request → Server_Error_Response&#10;&#10;[2] Definite_Response.Message_Class = CoAP::Server_Error">
<path fill="none" stroke="#6f6f6f" stroke-width="2.5" d="M309.18,-238.49C341.84,-226.72 385.47,-210.99 420.06,-198.53"/>
<polygon fill="#6f6f6f" stroke="#6f6f6f" stroke-width="2.5" points="421.34,-201.79 429.56,-195.1 418.96,-195.2 421.34,-201.79"/>
</a>
</g>
</g>
<!-- Send_Response -->
<g id="node7" class="node">
<title>Send_Response</title>
<path fill="#009641" stroke="#6f6f6f" d="M374,-36C374,-36 282,-36 282,-36 276,-36 270,-30 270,-24 270,-24 270,-12 270,-12 270,-6 276,0 282,0 282,0 374,0 374,0 380,0 386,-6 386,-12 386,-12 386,-24 386,-24 386,-30 380,-36 374,-36"/>
<text text-anchor="middle" x="328" y="-14.3" font-family="Arimo" font-size="14.00" fill="#ffffff">Send_Response</text>
</g>
<!-- Failure&#45;&gt;Send_Response -->
<g id="edge14" class="edge">
<title>Failure&#45;&gt;Send_Response</title>
<path fill="none" stroke="#6f6f6f" stroke-width="2.5" d="M251.75,-79.3C265.45,-68.46 283.32,-54.33 298.32,-42.47"/>
<polygon fill="#6f6f6f" stroke="#6f6f6f" stroke-width="2.5" points="300.64,-45.1 306.31,-36.15 296.3,-39.61 300.64,-45.1"/>
</g>
<!-- Success_Response&#45;&gt;Failure -->
<g id="edge8" class="edge">
<title>Success_Response&#45;&gt;Failure</title>
<path fill="none" stroke="#6f6f6f" stroke-width="2.5" d="M292.25,-158.8C281.27,-148.16 267.01,-134.35 254.91,-122.63"/>
<polygon fill="#6f6f6f" stroke="#6f6f6f" stroke-width="2.5" points="257.32,-120.1 247.7,-115.65 252.45,-125.12 257.32,-120.1"/>
</g>
<!-- Success_Response&#45;&gt;Send_Response -->
<g id="edge7" class="edge">
<title>Success_Response&#45;&gt;Send_Response</title>
<g id="a_edge7"><a xlink:title="Success_Response → Send_Response&#10;&#10;[0] Response&#39;Valid">
<path fill="none" stroke="#6f6f6f" stroke-width="2.5" d="M316.4,-158.72C321.57,-143.19 328,-119.63 328,-98.5 328,-98.5 328,-98.5 328,-70.5 328,-62.63 328,-54.09 328,-46.26"/>
<polygon fill="#6f6f6f" stroke="#6f6f6f" stroke-width="2.5" points="331.5,-46.17 328,-36.17 324.5,-46.17 331.5,-46.17"/>
</a>
</g>
</g>
<!-- Client_Error_Response&#45;&gt;Failure -->
<g id="edge10" class="edge">
<title>Client_Error_Response&#45;&gt;Failure</title>
<path fill="none" stroke="#6f6f6f" stroke-width="2.5" d="M133.99,-158.99C151.65,-147.86 174.93,-133.2 194.14,-121.09"/>
<polygon fill="#6f6f6f" stroke="#6f6f6f" stroke-width="2.5" points="196.05,-124.03 202.65,-115.74 192.32,-118.11 196.05,-124.03"/>
</g>
<!-- Client_Error_Response&#45;&gt;Send_Response -->
<g id="edge9" class="edge">
<title>Client_Error_Response&#45;&gt;Send_Response</title>
<g id="a_edge9"><a xlink:title="Client_Error_Response → Send_Response&#10;&#10;[0] Response&#39;Valid">
<path fill="none" stroke="#6f6f6f" stroke-width="2.5" d="M61.75,-158.83C48.74,-150.8 38,-139.6 38,-124.5 38,-124.5 38,-124.5 38,-70.5 38,-48.11 173.72,-32.25 259.47,-24.47"/>
<polygon fill="#6f6f6f" stroke="#6f6f6f" stroke-width="2.5" points="260.01,-27.93 269.66,-23.56 259.39,-20.96 260.01,-27.93"/>
</a>
</g>
</g>
<!-- Server_Error_Response&#45;&gt;Failure -->
<g id="edge12" class="edge">
<title>Server_Error_Response&#45;&gt;Failure</title>
<path fill="none" stroke="#6f6f6f" stroke-width="2.5" d="M422.79,-158.99C384.75,-147.05 333.73,-131.05 293.73,-118.5"/>
<polygon fill="#6f6f6f" stroke="#6f6f6f" stroke-width="2.5" points="294.67,-115.12 284.08,-115.47 292.57,-121.8 294.67,-115.12"/>
</g>
<!-- Server_Error_Response&#45;&gt;Send_Response -->
<g id="edge11" class="edge">
<title>Server_Error_Response&#45;&gt;Send_Response</title>
<g id="a_edge11"><a xlink:title="Server_Error_Response → Send_Response&#10;&#10;[0] Response&#39;Valid">
<path fill="none" stroke="#6f6f6f" stroke-width="2.5" d="M451.35,-159C441.24,-150.14 432,-138.27 432,-124.5 432,-124.5 432,-124.5 432,-70.5 432,-49.98 415.53,-37.63 395.7,-30.21"/>
<polygon fill="#6f6f6f" stroke="#6f6f6f" stroke-width="2.5" points="396.67,-26.84 386.08,-27.04 394.48,-33.49 396.67,-26.84"/>
</a>
</g>
</g>
<!-- Send_Response&#45;&gt;Receive_Request -->
<g id="edge13" class="edge">
<title>Send_Response&#45;&gt;Receive_Request</title>
<path fill="none" stroke="#6f6f6f" stroke-width="2.5" d="M386.22,-19.13C462.32,-20.91 586,-30.02 586,-70.5 586,-283.5 586,-283.5 586,-283.5 586,-309.93 390.61,-312.52 333.97,-318.43"/>
<polygon fill="#6f6f6f" stroke="#6f6f6f" stroke-width="2.5" points="333.32,-314.99 323.88,-319.8 334.26,-321.93 333.32,-314.99"/>
</g>
<!-- Final -->
<g id="node8" class="node">
<title>Final</title>
<ellipse fill="#6f6f6f" stroke="#6f6f6f" cx="360" cy="-336" rx="18" ry="18"/>
</g>
</g>
</svg>
