<?xml version="1.0" encoding="UTF-8" standalone="no"?>
<!DOCTYPE svg PUBLIC "-//W3C//DTD SVG 1.1//EN"
 "http://www.w3.org/Graphics/SVG/1.1/DTD/svg11.dtd">
<!-- Generated by graphviz version 2.43.0 (0)
 -->
<!-- Title: CoAP::Option_Type Pages: 1 -->
<svg width="1230pt" height="692pt"
 viewBox="0.00 0.00 1229.90 692.40" xmlns="http://www.w3.org/2000/svg" xmlns:xlink="http://www.w3.org/1999/xlink">
<g id="graph0" class="graph" transform="scale(1 1) rotate(0) translate(7.2 685.2)">
<title>CoAP::Option_Type</title>
<polygon fill="transparent" stroke="transparent" points="-7.2,7.2 -7.2,-685.2 1222.7,-685.2 1222.7,7.2 -7.2,7.2"/>
<!-- Initial -->
<g id="node1" class="node">
<title>Initial</title>
<ellipse fill="#ffffff" stroke="#6f6f6f" cx="753.5" cy="-660" rx="18" ry="18"/>
</g>
<!-- intermediate_0 -->
<g id="node9" class="node">
<title>intermediate_0</title>
<polygon fill="none" stroke="#6f6f6f" stroke-width="0" points="791,-618 716,-618 716,-595 791,-595 791,-618"/>
<text text-anchor="middle" x="753.5" y="-602.8" font-family="Fira Code" font-size="14.00" fill="#6f6f6f">(⊤, 4, ⋆)</text>
</g>
<!-- Initial&#45;&gt;intermediate_0 -->
<g id="edge1" class="edge">
<title>Initial&#45;&gt;intermediate_0</title>
<path fill="none" stroke="#6f6f6f" stroke-width="2.5" d="M753.5,-641.85C753.5,-634.01 753.5,-624.97 753.5,-618.13"/>
</g>
<!-- Option_Delta -->
<g id="node2" class="node">
<title>Option_Delta</title>
<path fill="#009641" stroke="#6f6f6f" d="M795.5,-571C795.5,-571 711.5,-571 711.5,-571 705.5,-571 699.5,-565 699.5,-559 699.5,-559 699.5,-547 699.5,-547 699.5,-541 705.5,-535 711.5,-535 711.5,-535 795.5,-535 795.5,-535 801.5,-535 807.5,-541 807.5,-547 807.5,-547 807.5,-559 807.5,-559 807.5,-565 801.5,-571 795.5,-571"/>
<text text-anchor="middle" x="753.5" y="-549.3" font-family="Arimo" font-size="14.00" fill="#ffffff">Option_Delta</text>
</g>
<!-- intermediate_1 -->
<g id="node10" class="node">
<title>intermediate_1</title>
<polygon fill="none" stroke="#6f6f6f" stroke-width="0" points="791,-511 716,-511 716,-488 791,-488 791,-511"/>
<text text-anchor="middle" x="753.5" y="-495.8" font-family="Fira Code" font-size="14.00" fill="#6f6f6f">(⊤, 4, ⋆)</text>
</g>
<!-- Option_Delta&#45;&gt;intermediate_1 -->
<g id="edge3" class="edge">
<title>Option_Delta&#45;&gt;intermediate_1</title>
<path fill="none" stroke="#6f6f6f" stroke-width="2.5" d="M753.5,-534.85C753.5,-527.01 753.5,-517.97 753.5,-511.13"/>
</g>
<!-- Option_Length -->
<g id="node3" class="node">
<title>Option_Length</title>
<path fill="#009641" stroke="#6f6f6f" d="M795.5,-464C795.5,-464 711.5,-464 711.5,-464 705.5,-464 699.5,-458 699.5,-452 699.5,-452 699.5,-440 699.5,-440 699.5,-434 705.5,-428 711.5,-428 711.5,-428 795.5,-428 795.5,-428 801.5,-428 807.5,-434 807.5,-440 807.5,-440 807.5,-452 807.5,-452 807.5,-458 801.5,-464 795.5,-464"/>
<text text-anchor="middle" x="753.5" y="-442.3" font-family="Arimo" font-size="14.00" fill="#ffffff">Option_Length</text>
</g>
<!-- intermediate_8 -->
<g id="node17" class="node">
<title>intermediate_8</title>
<polygon fill="none" stroke="#6f6f6f" stroke-width="0" points="853.5,-404 653.5,-404 653.5,-381 853.5,-381 853.5,-404"/>
<text text-anchor="middle" x="753.5" y="-388.8" font-family="Fira Code" font-size="14.00" fill="#6f6f6f">(Option_Delta = 14, 16, ⋆)</text>
</g>
<!-- Option_Length&#45;&gt;intermediate_8 -->
<g id="edge17" class="edge">
<title>Option_Length&#45;&gt;intermediate_8</title>
<path fill="none" stroke="#6f6f6f" stroke-width="2.5" d="M753.5,-427.85C753.5,-420.01 753.5,-410.97 753.5,-404.13"/>
</g>
<!-- intermediate_9 -->
<g id="node18" class="node">
<title>intermediate_9</title>
<polygon fill="none" stroke="#6f6f6f" stroke-width="0" points="493,-404 302,-404 302,-381 493,-381 493,-404"/>
<text text-anchor="middle" x="397.5" y="-388.8" font-family="Fira Code" font-size="14.00" fill="#6f6f6f">(Option_Delta = 13, 8, ⋆)</text>
</g>
<!-- Option_Length&#45;&gt;intermediate_9 -->
<g id="edge19" class="edge">
<title>Option_Length&#45;&gt;intermediate_9</title>
<path fill="none" stroke="#6f6f6f" stroke-width="2.5" d="M699.43,-437.18C638.26,-428.33 538.31,-413.87 470.31,-404.03"/>
</g>
<!-- intermediate_10 -->
<g id="node19" class="node">
<title>intermediate_10</title>
<polygon fill="none" stroke="#6f6f6f" stroke-width="0" points="1097.5,-411.5 871.5,-411.5 871.5,-373.5 1097.5,-373.5 1097.5,-411.5"/>
<text text-anchor="middle" x="984.5" y="-396.3" font-family="Fira Code" font-size="14.00" fill="#6f6f6f">(Option_Length = 14</text>
<text text-anchor="middle" x="984.5" y="-381.3" font-family="Fira Code" font-size="14.00" fill="#6f6f6f">and Option_Delta &lt; 13, 16, ⋆)</text>
</g>
<!-- Option_Length&#45;&gt;intermediate_10 -->
<g id="edge21" class="edge">
<title>Option_Length&#45;&gt;intermediate_10</title>
<path fill="none" stroke="#6f6f6f" stroke-width="2.5" d="M807.66,-432.93C836.2,-426.56 871.77,-418.63 903.52,-411.55"/>
</g>
<!-- intermediate_11 -->
<g id="node20" class="node">
<title>intermediate_11</title>
<polygon fill="none" stroke="#6f6f6f" stroke-width="0" points="624,-358 407,-358 407,-320 624,-320 624,-358"/>
<text text-anchor="middle" x="515.5" y="-342.8" font-family="Fira Code" font-size="14.00" fill="#6f6f6f">(Option_Length = 13</text>
<text text-anchor="middle" x="515.5" y="-327.8" font-family="Fira Code" font-size="14.00" fill="#6f6f6f">and Option_Delta &lt; 13, 8, ⋆)</text>
</g>
<!-- Option_Length&#45;&gt;intermediate_11 -->
<g id="edge23" class="edge">
<title>Option_Length&#45;&gt;intermediate_11</title>
<path fill="none" stroke="#6f6f6f" stroke-width="2.5" d="M699.48,-430.82C681.69,-425.51 661.99,-418.94 644.5,-411.5 608.68,-396.27 569.92,-373.92 544.34,-358.27"/>
</g>
<!-- intermediate_12 -->
<g id="node21" class="node">
<title>intermediate_12</title>
<polygon fill="none" stroke="#6f6f6f" stroke-width="0" points="1215.5,-258.5 1035.5,-258.5 1035.5,-205.5 1215.5,-205.5 1215.5,-258.5"/>
<text text-anchor="middle" x="1125.5" y="-243.3" font-family="Fira Code" font-size="14.00" fill="#6f6f6f">(Option_Length &lt; 13</text>
<text text-anchor="middle" x="1125.5" y="-228.3" font-family="Fira Code" font-size="14.00" fill="#6f6f6f">and Option_Delta &lt; 13,</text>
<text text-anchor="middle" x="1125.5" y="-213.3" font-family="Fira Code" font-size="14.00" fill="#6f6f6f">Option_Length * 8, ⋆)</text>
</g>
<!-- Option_Length&#45;&gt;intermediate_12 -->
<g id="edge25" class="edge">
<title>Option_Length&#45;&gt;intermediate_12</title>
<path fill="none" stroke="#6f6f6f" stroke-width="2.5" d="M807.64,-443.57C901.33,-440.55 1085.71,-432.06 1106.5,-411.5 1146.95,-371.51 1139.38,-297.82 1131.7,-258.8"/>
</g>
<!-- Option_Delta_Extended16 -->
<g id="node4" class="node">
<title>Option_Delta_Extended16</title>
<path fill="#009641" stroke="#6f6f6f" d="M848.5,-357C848.5,-357 696.5,-357 696.5,-357 690.5,-357 684.5,-351 684.5,-345 684.5,-345 684.5,-333 684.5,-333 684.5,-327 690.5,-321 696.5,-321 696.5,-321 848.5,-321 848.5,-321 854.5,-321 860.5,-327 860.5,-333 860.5,-333 860.5,-345 860.5,-345 860.5,-351 854.5,-357 848.5,-357"/>
<text text-anchor="middle" x="772.5" y="-335.3" font-family="Arimo" font-size="14.00" fill="#ffffff">Option_Delta_Extended16</text>
</g>
<!-- intermediate_2 -->
<g id="node11" class="node">
<title>intermediate_2</title>
<polygon fill="none" stroke="#6f6f6f" stroke-width="0" points="1037.5,-297 825.5,-297 825.5,-274 1037.5,-274 1037.5,-297"/>
<text text-anchor="middle" x="931.5" y="-281.8" font-family="Fira Code" font-size="14.00" fill="#6f6f6f">(Option_Length = 14, 16, ⋆)</text>
</g>
<!-- Option_Delta_Extended16&#45;&gt;intermediate_2 -->
<g id="edge5" class="edge">
<title>Option_Delta_Extended16&#45;&gt;intermediate_2</title>
<path fill="none" stroke="#6f6f6f" stroke-width="2.5" d="M825,-320.99C849.43,-313.08 877.71,-303.92 898.98,-297.03"/>
</g>
<!-- intermediate_3 -->
<g id="node12" class="node">
<title>intermediate_3</title>
<polygon fill="none" stroke="#6f6f6f" stroke-width="0" points="540,-297 337,-297 337,-274 540,-274 540,-297"/>
<text text-anchor="middle" x="438.5" y="-281.8" font-family="Fira Code" font-size="14.00" fill="#6f6f6f">(Option_Length = 13, 8, ⋆)</text>
</g>
<!-- Option_Delta_Extended16&#45;&gt;intermediate_3 -->
<g id="edge7" class="edge">
<title>Option_Delta_Extended16&#45;&gt;intermediate_3</title>
<path fill="none" stroke="#6f6f6f" stroke-width="2.5" d="M684.31,-324.4C628.74,-315.83 558.07,-304.94 506.79,-297.03"/>
</g>
<!-- intermediate_4 -->
<g id="node13" class="node">
<title>intermediate_4</title>
<polygon fill="none" stroke="#6f6f6f" stroke-width="0" points="736,-197.5 569,-197.5 569,-159.5 736,-159.5 736,-197.5"/>
<text text-anchor="middle" x="652.5" y="-182.3" font-family="Fira Code" font-size="14.00" fill="#6f6f6f">(Option_Length &lt; 13,</text>
<text text-anchor="middle" x="652.5" y="-167.3" font-family="Fira Code" font-size="14.00" fill="#6f6f6f">Option_Length * 8, ⋆)</text>
</g>
<!-- Option_Delta_Extended16&#45;&gt;intermediate_4 -->
<g id="edge9" class="edge">
<title>Option_Delta_Extended16&#45;&gt;intermediate_4</title>
<path fill="none" stroke="#6f6f6f" stroke-width="2.5" d="M778.91,-320.78C782.81,-307.34 785.79,-288.57 778.5,-274 760.83,-238.66 722.96,-213.11 693.33,-197.55"/>
</g>
<!-- Option_Delta_Extended8 -->
<g id="node5" class="node">
<title>Option_Delta_Extended8</title>
<path fill="#009641" stroke="#6f6f6f" d="M292.5,-357C292.5,-357 148.5,-357 148.5,-357 142.5,-357 136.5,-351 136.5,-345 136.5,-345 136.5,-333 136.5,-333 136.5,-327 142.5,-321 148.5,-321 148.5,-321 292.5,-321 292.5,-321 298.5,-321 304.5,-327 304.5,-333 304.5,-333 304.5,-345 304.5,-345 304.5,-351 298.5,-357 292.5,-357"/>
<text text-anchor="middle" x="220.5" y="-335.3" font-family="Arimo" font-size="14.00" fill="#ffffff">Option_Delta_Extended8</text>
</g>
<!-- intermediate_5 -->
<g id="node14" class="node">
<title>intermediate_5</title>
<polygon fill="none" stroke="#6f6f6f" stroke-width="0" points="769.5,-297 557.5,-297 557.5,-274 769.5,-274 769.5,-297"/>
<text text-anchor="middle" x="663.5" y="-281.8" font-family="Fira Code" font-size="14.00" fill="#6f6f6f">(Option_Length = 14, 16, ⋆)</text>
</g>
<!-- Option_Delta_Extended8&#45;&gt;intermediate_5 -->
<g id="edge11" class="edge">
<title>Option_Delta_Extended8&#45;&gt;intermediate_5</title>
<path fill="none" stroke="#6f6f6f" stroke-width="2.5" d="M304.61,-328.22C381.27,-319.31 494.22,-306.18 572.86,-297.04"/>
</g>
<!-- intermediate_6 -->
<g id="node15" class="node">
<title>intermediate_6</title>
<polygon fill="none" stroke="#6f6f6f" stroke-width="0" points="280,-297 77,-297 77,-274 280,-274 280,-297"/>
<text text-anchor="middle" x="178.5" y="-281.8" font-family="Fira Code" font-size="14.00" fill="#6f6f6f">(Option_Length = 13, 8, ⋆)</text>
</g>
<!-- Option_Delta_Extended8&#45;&gt;intermediate_6 -->
<g id="edge13" class="edge">
<title>Option_Delta_Extended8&#45;&gt;intermediate_6</title>
<path fill="none" stroke="#6f6f6f" stroke-width="2.5" d="M206.51,-320.85C200.12,-313.01 192.74,-303.97 187.17,-297.13"/>
</g>
<!-- intermediate_7 -->
<g id="node16" class="node">
<title>intermediate_7</title>
<polygon fill="none" stroke="#6f6f6f" stroke-width="0" points="167,-251 0,-251 0,-213 167,-213 167,-251"/>
<text text-anchor="middle" x="83.5" y="-235.8" font-family="Fira Code" font-size="14.00" fill="#6f6f6f">(Option_Length &lt; 13,</text>
<text text-anchor="middle" x="83.5" y="-220.8" font-family="Fira Code" font-size="14.00" fill="#6f6f6f">Option_Length * 8, ⋆)</text>
</g>
<!-- Option_Delta_Extended8&#45;&gt;intermediate_7 -->
<g id="edge15" class="edge">
<title>Option_Delta_Extended8&#45;&gt;intermediate_7</title>
<path fill="none" stroke="#6f6f6f" stroke-width="2.5" d="M136.12,-324.73C105.72,-318.09 76.62,-308.89 67.5,-297 57.39,-283.82 63.87,-265.04 71.38,-251.23"/>
</g>
<!-- Option_Length_Extended16 -->
<g id="node6" class="node">
<title>Option_Length_Extended16</title>
<path fill="#009641" stroke="#6f6f6f" d="M1005,-250C1005,-250 844,-250 844,-250 838,-250 832,-244 832,-238 832,-238 832,-226 832,-226 832,-220 838,-214 844,-214 844,-214 1005,-214 1005,-214 1011,-214 1017,-220 1017,-226 1017,-226 1017,-238 1017,-238 1017,-244 1011,-250 1005,-250"/>
<text text-anchor="middle" x="924.5" y="-228.3" font-family="Arimo" font-size="14.00" fill="#ffffff">Option_Length_Extended16</text>
</g>
<!-- intermediate_13 -->
<g id="node22" class="node">
<title>intermediate_13</title>
<polygon fill="none" stroke="#6f6f6f" stroke-width="0" points="1095,-190 754,-190 754,-167 1095,-167 1095,-190"/>
<text text-anchor="middle" x="924.5" y="-174.8" font-family="Fira Code" font-size="14.00" fill="#6f6f6f">(⊤, (269 + Option_Length_Extended16) * 8, ⋆)</text>
</g>
<!-- Option_Length_Extended16&#45;&gt;intermediate_13 -->
<g id="edge27" class="edge">
<title>Option_Length_Extended16&#45;&gt;intermediate_13</title>
<path fill="none" stroke="#6f6f6f" stroke-width="2.5" d="M924.5,-213.85C924.5,-206.01 924.5,-196.97 924.5,-190.13"/>
</g>
<!-- Option_Length_Extended8 -->
<g id="node7" class="node">
<title>Option_Length_Extended8</title>
<path fill="#009641" stroke="#6f6f6f" d="M411.5,-250C411.5,-250 257.5,-250 257.5,-250 251.5,-250 245.5,-244 245.5,-238 245.5,-238 245.5,-226 245.5,-226 245.5,-220 251.5,-214 257.5,-214 257.5,-214 411.5,-214 411.5,-214 417.5,-214 423.5,-220 423.5,-226 423.5,-226 423.5,-238 423.5,-238 423.5,-244 417.5,-250 411.5,-250"/>
<text text-anchor="middle" x="334.5" y="-228.3" font-family="Arimo" font-size="14.00" fill="#ffffff">Option_Length_Extended8</text>
</g>
<!-- intermediate_14 -->
<g id="node23" class="node">
<title>intermediate_14</title>
<polygon fill="none" stroke="#6f6f6f" stroke-width="0" points="522,-190 199,-190 199,-167 522,-167 522,-190"/>
<text text-anchor="middle" x="360.5" y="-174.8" font-family="Fira Code" font-size="14.00" fill="#6f6f6f">(⊤, (13 + Option_Length_Extended8) * 8, ⋆)</text>
</g>
<!-- Option_Length_Extended8&#45;&gt;intermediate_14 -->
<g id="edge29" class="edge">
<title>Option_Length_Extended8&#45;&gt;intermediate_14</title>
<path fill="none" stroke="#6f6f6f" stroke-width="2.5" d="M343.16,-213.85C347.12,-206.01 351.68,-196.97 355.14,-190.13"/>
</g>
<!-- Option_Value -->
<g id="node8" class="node">
<title>Option_Value</title>
<path fill="#009641" stroke="#6f6f6f" d="M694.5,-143C694.5,-143 610.5,-143 610.5,-143 604.5,-143 598.5,-137 598.5,-131 598.5,-131 598.5,-119 598.5,-119 598.5,-113 604.5,-107 610.5,-107 610.5,-107 694.5,-107 694.5,-107 700.5,-107 706.5,-113 706.5,-119 706.5,-119 706.5,-131 706.5,-131 706.5,-137 700.5,-143 694.5,-143"/>
<text text-anchor="middle" x="652.5" y="-121.3" font-family="Arimo" font-size="14.00" fill="#ffffff">Option_Value</text>
</g>
<!-- intermediate_15 -->
<g id="node24" class="node">
<title>intermediate_15</title>
<polygon fill="none" stroke="#6f6f6f" stroke-width="0" points="690,-83 615,-83 615,-60 690,-60 690,-83"/>
<text text-anchor="middle" x="652.5" y="-67.8" font-family="Fira Code" font-size="14.00" fill="#6f6f6f">(⊤, 0, ⋆)</text>
</g>
<!-- Option_Value&#45;&gt;intermediate_15 -->
<g id="edge31" class="edge">
<title>Option_Value&#45;&gt;intermediate_15</title>
<path fill="none" stroke="#6f6f6f" stroke-width="2.5" d="M652.5,-106.85C652.5,-99.01 652.5,-89.97 652.5,-83.13"/>
</g>
<!-- intermediate_0&#45;&gt;Option_Delta -->
<g id="edge2" class="edge">
<title>intermediate_0&#45;&gt;Option_Delta</title>
<path fill="none" stroke="#6f6f6f" stroke-width="2.5" d="M753.5,-594.83C753.5,-590.88 753.5,-586.19 753.5,-581.43"/>
<polygon fill="#6f6f6f" stroke="#6f6f6f" stroke-width="2.5" points="757,-581.14 753.5,-571.14 750,-581.14 757,-581.14"/>
</g>
<!-- intermediate_1&#45;&gt;Option_Length -->
<g id="edge4" class="edge">
<title>intermediate_1&#45;&gt;Option_Length</title>
<path fill="none" stroke="#6f6f6f" stroke-width="2.5" d="M753.5,-487.83C753.5,-483.88 753.5,-479.19 753.5,-474.43"/>
<polygon fill="#6f6f6f" stroke="#6f6f6f" stroke-width="2.5" points="757,-474.14 753.5,-464.14 750,-474.14 757,-474.14"/>
</g>
<!-- intermediate_2&#45;&gt;Option_Length_Extended16 -->
<g id="edge6" class="edge">
<title>intermediate_2&#45;&gt;Option_Length_Extended16</title>
<path fill="none" stroke="#6f6f6f" stroke-width="2.5" d="M930.05,-273.83C929.51,-269.88 928.88,-265.19 928.23,-260.43"/>
<polygon fill="#6f6f6f" stroke="#6f6f6f" stroke-width="2.5" points="931.65,-259.58 926.83,-250.14 924.71,-260.52 931.65,-259.58"/>
</g>
<!-- intermediate_3&#45;&gt;Option_Length_Extended8 -->
<g id="edge8" class="edge">
<title>intermediate_3&#45;&gt;Option_Length_Extended8</title>
<path fill="none" stroke="#6f6f6f" stroke-width="2.5" d="M417.2,-273.95C405.9,-268.36 391.59,-261.27 378.06,-254.57"/>
<polygon fill="#6f6f6f" stroke="#6f6f6f" stroke-width="2.5" points="379.38,-251.32 368.87,-250.02 376.28,-257.59 379.38,-251.32"/>
</g>
<!-- intermediate_4&#45;&gt;Option_Value -->
<g id="edge10" class="edge">
<title>intermediate_4&#45;&gt;Option_Value</title>
<path fill="none" stroke="#6f6f6f" stroke-width="2.5" d="M652.5,-159.49C652.5,-157.4 652.5,-155.24 652.5,-153.07"/>
<polygon fill="#6f6f6f" stroke="#6f6f6f" stroke-width="2.5" points="656,-153.05 652.5,-143.05 649,-153.05 656,-153.05"/>
</g>
<!-- intermediate_5&#45;&gt;Option_Length_Extended16 -->
<g id="edge12" class="edge">
<title>intermediate_5&#45;&gt;Option_Length_Extended16</title>
<path fill="none" stroke="#6f6f6f" stroke-width="2.5" d="M716.95,-273.95C748.98,-267.63 790.67,-259.41 828.27,-251.99"/>
<polygon fill="#6f6f6f" stroke="#6f6f6f" stroke-width="2.5" points="829.11,-255.39 838.24,-250.02 827.76,-248.52 829.11,-255.39"/>
</g>
<!-- intermediate_6&#45;&gt;Option_Length_Extended8 -->
<g id="edge14" class="edge">
<title>intermediate_6&#45;&gt;Option_Length_Extended8</title>
<path fill="none" stroke="#6f6f6f" stroke-width="2.5" d="M210.45,-273.95C228.53,-267.98 251.77,-260.31 273.23,-253.23"/>
<polygon fill="#6f6f6f" stroke="#6f6f6f" stroke-width="2.5" points="274.55,-256.48 282.95,-250.02 272.35,-249.83 274.55,-256.48"/>
</g>
<!-- intermediate_7&#45;&gt;Option_Value -->
<g id="edge16" class="edge">
<title>intermediate_7&#45;&gt;Option_Value</title>
<path fill="none" stroke="#6f6f6f" stroke-width="2.5" d="M103.25,-212.95C123.33,-195.82 156.14,-171.03 189.5,-159.5 261.35,-134.66 478.76,-128.24 588.17,-126.58"/>
<polygon fill="#6f6f6f" stroke="#6f6f6f" stroke-width="2.5" points="588.46,-130.07 598.41,-126.43 588.36,-123.08 588.46,-130.07"/>
</g>
<!-- intermediate_8&#45;&gt;Option_Delta_Extended16 -->
<g id="edge18" class="edge">
<title>intermediate_8&#45;&gt;Option_Delta_Extended16</title>
<path fill="none" stroke="#6f6f6f" stroke-width="2.5" d="M757.44,-380.83C758.97,-376.66 760.81,-371.69 762.66,-366.66"/>
<polygon fill="#6f6f6f" stroke="#6f6f6f" stroke-width="2.5" points="766,-367.74 766.17,-357.14 759.43,-365.31 766,-367.74"/>
</g>
<!-- intermediate_9&#45;&gt;Option_Delta_Extended8 -->
<g id="edge20" class="edge">
<title>intermediate_9&#45;&gt;Option_Delta_Extended8</title>
<path fill="none" stroke="#6f6f6f" stroke-width="2.5" d="M361.25,-380.95C340.36,-374.87 313.41,-367.03 288.7,-359.84"/>
<polygon fill="#6f6f6f" stroke="#6f6f6f" stroke-width="2.5" points="289.57,-356.45 278.99,-357.02 287.62,-363.17 289.57,-356.45"/>
</g>
<!-- intermediate_10&#45;&gt;Option_Length_Extended16 -->
<g id="edge22" class="edge">
<title>intermediate_10&#45;&gt;Option_Length_Extended16</title>
<path fill="none" stroke="#6f6f6f" stroke-width="2.5" d="M1006.27,-373.5C1032.44,-349.65 1070.06,-306.77 1046.5,-274 1040.95,-266.28 1025.59,-259.15 1007.56,-253.09"/>
<polygon fill="#6f6f6f" stroke="#6f6f6f" stroke-width="2.5" points="1008.52,-249.72 997.93,-250.01 1006.39,-256.39 1008.52,-249.72"/>
</g>
<!-- intermediate_11&#45;&gt;Option_Length_Extended8 -->
<g id="edge24" class="edge">
<title>intermediate_11&#45;&gt;Option_Length_Extended8</title>
<path fill="none" stroke="#6f6f6f" stroke-width="2.5" d="M406.9,-326.11C371.47,-319.83 338.4,-310.53 327.5,-297 319.2,-286.7 320.07,-272.24 323.41,-259.67"/>
<polygon fill="#6f6f6f" stroke="#6f6f6f" stroke-width="2.5" points="326.75,-260.71 326.48,-250.12 320.09,-258.56 326.75,-260.71"/>
</g>
<!-- intermediate_12&#45;&gt;Option_Value -->
<g id="edge26" class="edge">
<title>intermediate_12&#45;&gt;Option_Value</title>
<path fill="none" stroke="#6f6f6f" stroke-width="2.5" d="M1124.93,-205.18C1123.11,-189.47 1117.99,-170.39 1104.5,-159.5 1075.09,-135.74 835.06,-128.77 717.25,-126.78"/>
<polygon fill="#6f6f6f" stroke="#6f6f6f" stroke-width="2.5" points="716.98,-123.27 706.93,-126.61 716.87,-130.27 716.98,-123.27"/>
</g>
<!-- intermediate_13&#45;&gt;Option_Value -->
<g id="edge28" class="edge">
<title>intermediate_13&#45;&gt;Option_Value</title>
<path fill="none" stroke="#6f6f6f" stroke-width="2.5" d="M868.8,-166.95C824.64,-158.59 762.87,-146.9 716.64,-138.15"/>
<polygon fill="#6f6f6f" stroke="#6f6f6f" stroke-width="2.5" points="717.21,-134.69 706.73,-136.27 715.91,-141.57 717.21,-134.69"/>
</g>
<!-- intermediate_14&#45;&gt;Option_Value -->
<g id="edge30" class="edge">
<title>intermediate_14&#45;&gt;Option_Value</title>
<path fill="none" stroke="#6f6f6f" stroke-width="2.5" d="M420.3,-166.95C469.15,-158.34 538.08,-146.18 588.14,-137.35"/>
<polygon fill="#6f6f6f" stroke="#6f6f6f" stroke-width="2.5" points="588.96,-140.76 598.2,-135.58 587.75,-133.87 588.96,-140.76"/>
</g>
<!-- Final -->
<g id="node25" class="node">
<title>Final</title>
<ellipse fill="#6f6f6f" stroke="#6f6f6f" cx="652.5" cy="-18" rx="18" ry="18"/>
</g>
<!-- intermediate_15&#45;&gt;Final -->
<g id="edge32" class="edge">
<title>intermediate_15&#45;&gt;Final</title>
<path fill="none" stroke="#6f6f6f" stroke-width="2.5" d="M652.5,-59.83C652.5,-55.88 652.5,-51.19 652.5,-46.43"/>
<polygon fill="#6f6f6f" stroke="#6f6f6f" stroke-width="2.5" points="656,-46.14 652.5,-36.14 649,-46.14 656,-46.14"/>
</g>
</g>
</svg>
