<?xml version="1.0" encoding="UTF-8" standalone="no"?>
<!DOCTYPE svg PUBLIC "-//W3C//DTD SVG 1.1//EN"
 "http://www.w3.org/Graphics/SVG/1.1/DTD/svg11.dtd">
<!-- Generated by graphviz version 2.43.0 (0)
 -->
<!-- Title: CoAP_Client::Options_And_Payload_Data Pages: 1 -->
<svg width="166pt" height="275pt"
 viewBox="0.00 0.00 166.40 275.40" xmlns="http://www.w3.org/2000/svg" xmlns:xlink="http://www.w3.org/1999/xlink">
<g id="graph0" class="graph" transform="scale(1 1) rotate(0) translate(7.2 268.2)">
<title>CoAP_Client::Options_And_Payload_Data</title>
<polygon fill="transparent" stroke="transparent" points="-7.2,7.2 -7.2,-268.2 159.2,-268.2 159.2,7.2 -7.2,7.2"/>
<!-- Initial -->
<g id="node1" class="node">
<title>Initial</title>
<ellipse fill="#ffffff" stroke="#6f6f6f" cx="76" cy="-243" rx="18" ry="18"/>
</g>
<!-- intermediate_0 -->
<g id="node4" class="node">
<title>intermediate_0</title>
<polygon fill="none" stroke="#6f6f6f" stroke-width="0" points="118,-217 34,-217 34,-194 118,-194 118,-217"/>
<text text-anchor="middle" x="76" y="-201.8" font-family="Fira Code" font-size="14.00" fill="#6f6f6f">(⊤, 16, ⋆)</text>
</g>
<!-- Initial&#45;&gt;intermediate_0 -->
<g id="edge1" class="edge">
<title>Initial&#45;&gt;intermediate_0</title>
<path fill="none" stroke="#6f6f6f" stroke-width="2.5" d="M76,-224.67C76,-222.13 76,-219.59 76,-217.24"/>
</g>
<!-- Length -->
<g id="node2" class="node">
<title>Length</title>
<path fill="#009641" stroke="#6f6f6f" d="M118,-186C118,-186 34,-186 34,-186 28,-186 22,-180 22,-174 22,-174 22,-162 22,-162 22,-156 28,-150 34,-150 34,-150 118,-150 118,-150 124,-150 130,-156 130,-162 130,-162 130,-174 130,-174 130,-180 124,-186 118,-186"/>
<text text-anchor="middle" x="76" y="-164.3" font-family="Arimo" font-size="14.00" fill="#ffffff">Length</text>
</g>
<!-- intermediate_1 -->
<g id="node5" class="node">
<title>intermediate_1</title>
<polygon fill="none" stroke="#6f6f6f" stroke-width="0" points="145.5,-142 6.5,-142 6.5,-119 145.5,-119 145.5,-142"/>
<text text-anchor="middle" x="76" y="-126.8" font-family="Fira Code" font-size="14.00" fill="#6f6f6f">(⊤, Length * 8, ⋆)</text>
</g>
<!-- Length&#45;&gt;intermediate_1 -->
<g id="edge3" class="edge">
<title>Length&#45;&gt;intermediate_1</title>
<path fill="none" stroke="#6f6f6f" stroke-width="2.5" d="M76,-149.67C76,-147.13 76,-144.59 76,-142.24"/>
</g>
<!-- Options_And_Payload -->
<g id="node3" class="node">
<title>Options_And_Payload</title>
<path fill="#009641" stroke="#6f6f6f" d="M140,-111C140,-111 12,-111 12,-111 6,-111 0,-105 0,-99 0,-99 0,-87 0,-87 0,-81 6,-75 12,-75 12,-75 140,-75 140,-75 146,-75 152,-81 152,-87 152,-87 152,-99 152,-99 152,-105 146,-111 140,-111"/>
<text text-anchor="middle" x="76" y="-89.3" font-family="Arimo" font-size="14.00" fill="#ffffff">Options_And_Payload</text>
</g>
<!-- intermediate_2 -->
<g id="node6" class="node">
<title>intermediate_2</title>
<polygon fill="none" stroke="#6f6f6f" stroke-width="0" points="113.5,-67 38.5,-67 38.5,-44 113.5,-44 113.5,-67"/>
<text text-anchor="middle" x="76" y="-51.8" font-family="Fira Code" font-size="14.00" fill="#6f6f6f">(⊤, 0, ⋆)</text>
</g>
<!-- Options_And_Payload&#45;&gt;intermediate_2 -->
<g id="edge5" class="edge">
<title>Options_And_Payload&#45;&gt;intermediate_2</title>
<path fill="none" stroke="#6f6f6f" stroke-width="2.5" d="M76,-74.67C76,-72.13 76,-69.59 76,-67.24"/>
</g>
<!-- intermediate_0&#45;&gt;Length -->
<g id="edge2" class="edge">
<title>intermediate_0&#45;&gt;Length</title>
<path fill="none" stroke="#6f6f6f" stroke-width="2.5" d="M76,-193.66C76,-193.51 76,-193.36 76,-193.21"/>
<polygon fill="#6f6f6f" stroke="#6f6f6f" stroke-width="2.5" points="79.5,-196.19 76,-186.19 72.5,-196.19 79.5,-196.19"/>
</g>
<!-- intermediate_1&#45;&gt;Options_And_Payload -->
<g id="edge4" class="edge">
<title>intermediate_1&#45;&gt;Options_And_Payload</title>
<path fill="none" stroke="#6f6f6f" stroke-width="2.5" d="M76,-118.66C76,-118.51 76,-118.36 76,-118.21"/>
<polygon fill="#6f6f6f" stroke="#6f6f6f" stroke-width="2.5" points="79.5,-121.19 76,-111.19 72.5,-121.19 79.5,-121.19"/>
</g>
<!-- Final -->
<g id="node7" class="node">
<title>Final</title>
<ellipse fill="#6f6f6f" stroke="#6f6f6f" cx="76" cy="-18" rx="18" ry="18"/>
</g>
<!-- intermediate_2&#45;&gt;Final -->
<g id="edge6" class="edge">
<title>intermediate_2&#45;&gt;Final</title>
<path fill="none" stroke="#6f6f6f" stroke-width="2.5" d="M76,-43.66C76,-43.51 76,-43.36 76,-43.21"/>
<polygon fill="#6f6f6f" stroke="#6f6f6f" stroke-width="2.5" points="79.5,-46.19 76,-36.19 72.5,-46.19 79.5,-46.19"/>
</g>
</g>
</svg>
