<?xml version="1.0" encoding="UTF-8" standalone="no"?>
<!DOCTYPE svg PUBLIC "-//W3C//DTD SVG 1.1//EN"
 "http://www.w3.org/Graphics/SVG/1.1/DTD/svg11.dtd">
<!-- Generated by graphviz version 2.43.0 (0)
 -->
<!-- Title: CoAP_Client::Session Pages: 1 -->
<svg width="584pt" height="527pt"
 viewBox="0.00 0.00 584.40 527.40" xmlns="http://www.w3.org/2000/svg" xmlns:xlink="http://www.w3.org/1999/xlink">
<g id="graph0" class="graph" transform="scale(1 1) rotate(0) translate(7.2 520.2)">
<title>CoAP_Client::Session</title>
<polygon fill="transparent" stroke="transparent" points="-7.2,7.2 -7.2,-520.2 577.2,-520.2 577.2,7.2 -7.2,7.2"/>
<!-- Create_Request -->
<g id="node1" class="node">
<title>Create_Request</title>
<path fill="#ffffff" stroke="#6f6f6f" d="M242.5,-513C242.5,-513 151.5,-513 151.5,-513 145.5,-513 139.5,-507 139.5,-501 139.5,-501 139.5,-489 139.5,-489 139.5,-483 145.5,-477 151.5,-477 151.5,-477 242.5,-477 242.5,-477 248.5,-477 254.5,-483 254.5,-489 254.5,-489 254.5,-501 254.5,-501 254.5,-507 248.5,-513 242.5,-513"/>
<text text-anchor="middle" x="197" y="-491.3" font-family="Arimo" font-size="14.00">Create_Request</text>
</g>
<!-- Send_Request -->
<g id="node2" class="node">
<title>Send_Request</title>
<path fill="#009641" stroke="#6f6f6f" d="M239,-433.5C239,-433.5 155,-433.5 155,-433.5 149,-433.5 143,-427.5 143,-421.5 143,-421.5 143,-409.5 143,-409.5 143,-403.5 149,-397.5 155,-397.5 155,-397.5 239,-397.5 239,-397.5 245,-397.5 251,-403.5 251,-409.5 251,-409.5 251,-421.5 251,-421.5 251,-427.5 245,-433.5 239,-433.5"/>
<text text-anchor="middle" x="197" y="-411.8" font-family="Arimo" font-size="14.00" fill="#ffffff">Send_Request</text>
</g>
<!-- Create_Request&#45;&gt;Send_Request -->
<g id="edge1" class="edge">
<title>Create_Request&#45;&gt;Send_Request</title>
<path fill="none" stroke="#6f6f6f" stroke-width="2.5" d="M197,-476.8C197,-467.07 197,-454.68 197,-443.66"/>
<polygon fill="#6f6f6f" stroke="#6f6f6f" stroke-width="2.5" points="200.5,-443.65 197,-433.65 193.5,-443.65 200.5,-443.65"/>
</g>
<!-- Receive_Response -->
<g id="node3" class="node">
<title>Receive_Response</title>
<path fill="#009641" stroke="#6f6f6f" d="M252,-354C252,-354 142,-354 142,-354 136,-354 130,-348 130,-342 130,-342 130,-330 130,-330 130,-324 136,-318 142,-318 142,-318 252,-318 252,-318 258,-318 264,-324 264,-330 264,-330 264,-342 264,-342 264,-348 258,-354 252,-354"/>
<text text-anchor="middle" x="197" y="-332.3" font-family="Arimo" font-size="14.00" fill="#ffffff">Receive_Response</text>
</g>
<!-- Send_Request&#45;&gt;Receive_Response -->
<g id="edge2" class="edge">
<title>Send_Request&#45;&gt;Receive_Response</title>
<path fill="none" stroke="#6f6f6f" stroke-width="2.5" d="M197,-397.3C197,-387.57 197,-375.18 197,-364.16"/>
<polygon fill="#6f6f6f" stroke="#6f6f6f" stroke-width="2.5" points="200.5,-364.15 197,-354.15 193.5,-364.15 200.5,-364.15"/>
</g>
<!-- Receive_Response&#45;&gt;Receive_Response -->
<g id="edge5" class="edge">
<title>Receive_Response&#45;&gt;Receive_Response</title>
<path fill="none" stroke="#6f6f6f" stroke-width="2.5" d="M264.34,-340.47C274.84,-339.8 282,-338.31 282,-336 282,-334.56 279.2,-333.43 274.54,-332.63"/>
<polygon fill="#6f6f6f" stroke="#6f6f6f" stroke-width="2.5" points="274.65,-329.12 264.34,-331.53 273.91,-336.08 274.65,-329.12"/>
</g>
<!-- Success -->
<g id="node4" class="node">
<title>Success</title>
<path fill="#009641" stroke="#6f6f6f" d="M96,-195C96,-195 12,-195 12,-195 6,-195 0,-189 0,-183 0,-183 0,-171 0,-171 0,-165 6,-159 12,-159 12,-159 96,-159 96,-159 102,-159 108,-165 108,-171 108,-171 108,-183 108,-183 108,-189 102,-195 96,-195"/>
<text text-anchor="middle" x="54" y="-173.3" font-family="Arimo" font-size="14.00" fill="#ffffff">Success</text>
</g>
<!-- Receive_Response&#45;&gt;Success -->
<g id="edge3" class="edge">
<title>Receive_Response&#45;&gt;Success</title>
<g id="a_edge3"><a xlink:title="Receive_Response → Success&#10;&#10;[0] (Response&#39;Valid&#10; and Are_Equal_Tokens (Response.Token, Request.Token))&#10;and Response.Class = CoAP::Success">
<path fill="none" stroke="#6f6f6f" stroke-width="2.5" d="M187.28,-317.94C182.6,-308.17 178,-295.51 178,-283.5 178,-283.5 178,-283.5 178,-229.5 178,-222.11 147.54,-209.39 116.82,-198.45"/>
<polygon fill="#6f6f6f" stroke="#6f6f6f" stroke-width="2.5" points="117.9,-195.12 107.31,-195.11 115.59,-201.72 117.9,-195.12"/>
</a>
</g>
</g>
<!-- Treat_Error_Response -->
<g id="node5" class="node">
<title>Treat_Error_Response</title>
<path fill="#009641" stroke="#6f6f6f" d="M401,-274.5C401,-274.5 271,-274.5 271,-274.5 265,-274.5 259,-268.5 259,-262.5 259,-262.5 259,-250.5 259,-250.5 259,-244.5 265,-238.5 271,-238.5 271,-238.5 401,-238.5 401,-238.5 407,-238.5 413,-244.5 413,-250.5 413,-250.5 413,-262.5 413,-262.5 413,-268.5 407,-274.5 401,-274.5"/>
<text text-anchor="middle" x="336" y="-252.8" font-family="Arimo" font-size="14.00" fill="#ffffff">Treat_Error_Response</text>
</g>
<!-- Receive_Response&#45;&gt;Treat_Error_Response -->
<g id="edge4" class="edge">
<title>Receive_Response&#45;&gt;Treat_Error_Response</title>
<g id="a_edge4"><a xlink:title="Receive_Response → Treat_Error_Response&#10;&#10;[1] (Response&#39;Valid&#10; and Are_Equal_Tokens (Response.Token, Request.Token))&#10;and (Response.Class = CoAP::Client_Error&#10; &#160;&#160;&#160;&#160;or Response.Class = CoAP::Server_Error)">
<path fill="none" stroke="#6f6f6f" stroke-width="2.5" d="M227.5,-317.99C247.73,-306.71 274.48,-291.8 296.35,-279.61"/>
<polygon fill="#6f6f6f" stroke="#6f6f6f" stroke-width="2.5" points="298.06,-282.66 305.09,-274.74 294.65,-276.55 298.06,-282.66"/>
</a>
</g>
</g>
<!-- Failure -->
<g id="node8" class="node">
<title>Failure</title>
<path fill="#009641" stroke="#6f6f6f" d="M351,-115.5C351,-115.5 267,-115.5 267,-115.5 261,-115.5 255,-109.5 255,-103.5 255,-103.5 255,-91.5 255,-91.5 255,-85.5 261,-79.5 267,-79.5 267,-79.5 351,-79.5 351,-79.5 357,-79.5 363,-85.5 363,-91.5 363,-91.5 363,-103.5 363,-103.5 363,-109.5 357,-115.5 351,-115.5"/>
<text text-anchor="middle" x="309" y="-93.8" font-family="Arimo" font-size="14.00" fill="#ffffff">Failure</text>
</g>
<!-- Success&#45;&gt;Failure -->
<g id="edge14" class="edge">
<title>Success&#45;&gt;Failure</title>
<path fill="none" stroke="#6f6f6f" stroke-width="2.5" d="M108.08,-159.56C148.23,-147.36 203.11,-130.68 245.37,-117.84"/>
<polygon fill="#6f6f6f" stroke="#6f6f6f" stroke-width="2.5" points="246.45,-121.17 255,-114.91 244.41,-114.47 246.45,-121.17"/>
</g>
<!-- Final -->
<g id="node9" class="node">
<title>Final</title>
<ellipse fill="#6f6f6f" stroke="#6f6f6f" cx="246" cy="-18" rx="18" ry="18"/>
</g>
<!-- Success&#45;&gt;Final -->
<g id="edge13" class="edge">
<title>Success&#45;&gt;Final</title>
<g id="a_edge13"><a xlink:title="Success → Final&#10;&#10;[0] OK">
<path fill="none" stroke="#6f6f6f" stroke-width="2.5" d="M67.09,-158.87C73.13,-149.29 79,-136.82 79,-124.5 79,-124.5 79,-124.5 79,-70.5 79,-41.73 170.66,-27.32 218.17,-21.79"/>
<polygon fill="#6f6f6f" stroke="#6f6f6f" stroke-width="2.5" points="218.58,-25.26 228.13,-20.68 217.8,-18.31 218.58,-25.26"/>
</a>
</g>
</g>
<!-- Treat_Client_Error_Response -->
<g id="node6" class="node">
<title>Treat_Client_Error_Response</title>
<path fill="#009641" stroke="#6f6f6f" d="M530,-195C530,-195 358,-195 358,-195 352,-195 346,-189 346,-183 346,-183 346,-171 346,-171 346,-165 352,-159 358,-159 358,-159 530,-159 530,-159 536,-159 542,-165 542,-171 542,-171 542,-183 542,-183 542,-189 536,-195 530,-195"/>
<text text-anchor="middle" x="444" y="-173.3" font-family="Arimo" font-size="14.00" fill="#ffffff">Treat_Client_Error_Response</text>
</g>
<!-- Treat_Error_Response&#45;&gt;Treat_Client_Error_Response -->
<g id="edge6" class="edge">
<title>Treat_Error_Response&#45;&gt;Treat_Client_Error_Response</title>
<g id="a_edge6"><a xlink:title="Treat_Error_Response → Treat_Client_Error_Response&#10;&#10;[0] OK&#10;and Response.Class = CoAP::Client_Error">
<path fill="none" stroke="#6f6f6f" stroke-width="2.5" d="M359.7,-238.49C374.93,-227.56 394.91,-213.23 411.6,-201.25"/>
<polygon fill="#6f6f6f" stroke="#6f6f6f" stroke-width="2.5" points="413.9,-203.91 419.98,-195.24 409.82,-198.22 413.9,-203.91"/>
</a>
</g>
</g>
<!-- Treat_Server_Error_Response -->
<g id="node7" class="node">
<title>Treat_Server_Error_Response</title>
<path fill="#009641" stroke="#6f6f6f" d="M315.5,-195C315.5,-195 138.5,-195 138.5,-195 132.5,-195 126.5,-189 126.5,-183 126.5,-183 126.5,-171 126.5,-171 126.5,-165 132.5,-159 138.5,-159 138.5,-159 315.5,-159 315.5,-159 321.5,-159 327.5,-165 327.5,-171 327.5,-171 327.5,-183 327.5,-183 327.5,-189 321.5,-195 315.5,-195"/>
<text text-anchor="middle" x="227" y="-173.3" font-family="Arimo" font-size="14.00" fill="#ffffff">Treat_Server_Error_Response</text>
</g>
<!-- Treat_Error_Response&#45;&gt;Treat_Server_Error_Response -->
<g id="edge7" class="edge">
<title>Treat_Error_Response&#45;&gt;Treat_Server_Error_Response</title>
<g id="a_edge7"><a xlink:title="Treat_Error_Response → Treat_Server_Error_Response&#10;&#10;[1] OK&#10;and Response.Class = CoAP::Server_Error">
<path fill="none" stroke="#6f6f6f" stroke-width="2.5" d="M312.08,-238.49C296.71,-227.56 276.54,-213.23 259.7,-201.25"/>
<polygon fill="#6f6f6f" stroke="#6f6f6f" stroke-width="2.5" points="261.42,-198.18 251.24,-195.24 257.36,-203.88 261.42,-198.18"/>
</a>
</g>
</g>
<!-- Treat_Error_Response&#45;&gt;Failure -->
<g id="edge8" class="edge">
<title>Treat_Error_Response&#45;&gt;Failure</title>
<path fill="none" stroke="#6f6f6f" stroke-width="2.5" d="M413.27,-253.04C481.43,-248.7 570,-236.76 570,-204 570,-204 570,-204 570,-150 570,-110 450.5,-100.55 373.22,-98.62"/>
<polygon fill="#6f6f6f" stroke="#6f6f6f" stroke-width="2.5" points="373.15,-95.12 363.08,-98.41 373,-102.12 373.15,-95.12"/>
</g>
<!-- Treat_Client_Error_Response&#45;&gt;Failure -->
<g id="edge10" class="edge">
<title>Treat_Client_Error_Response&#45;&gt;Failure</title>
<path fill="none" stroke="#6f6f6f" stroke-width="2.5" d="M414.37,-158.99C394.81,-147.76 368.98,-132.93 347.79,-120.77"/>
<polygon fill="#6f6f6f" stroke="#6f6f6f" stroke-width="2.5" points="349.44,-117.68 339.02,-115.74 345.95,-123.75 349.44,-117.68"/>
</g>
<!-- Treat_Client_Error_Response&#45;&gt;Final -->
<g id="edge9" class="edge">
<title>Treat_Client_Error_Response&#45;&gt;Final</title>
<g id="a_edge9"><a xlink:title="Treat_Client_Error_Response → Final&#10;&#10;[0] OK">
<path fill="none" stroke="#6f6f6f" stroke-width="2.5" d="M429.55,-158.56C423.13,-149.09 417,-136.82 417,-124.5 417,-124.5 417,-124.5 417,-70.5 417,-41.03 322.69,-26.93 274.14,-21.62"/>
<polygon fill="#6f6f6f" stroke="#6f6f6f" stroke-width="2.5" points="274.28,-18.12 263.98,-20.57 273.56,-25.08 274.28,-18.12"/>
</a>
</g>
</g>
<!-- Treat_Server_Error_Response&#45;&gt;Failure -->
<g id="edge12" class="edge">
<title>Treat_Server_Error_Response&#45;&gt;Failure</title>
<path fill="none" stroke="#6f6f6f" stroke-width="2.5" d="M245.2,-158.8C256.45,-148.16 271.07,-134.35 283.47,-122.63"/>
<polygon fill="#6f6f6f" stroke="#6f6f6f" stroke-width="2.5" points="285.99,-125.06 290.85,-115.65 281.18,-119.98 285.99,-125.06"/>
</g>
<!-- Treat_Server_Error_Response&#45;&gt;Final -->
<g id="edge11" class="edge">
<title>Treat_Server_Error_Response&#45;&gt;Final</title>
<g id="a_edge11"><a xlink:title="Treat_Server_Error_Response → Final&#10;&#10;[0] OK">
<path fill="none" stroke="#6f6f6f" stroke-width="2.5" d="M227,-158.83C227,-148.82 227,-135.94 227,-124.5 227,-124.5 227,-124.5 227,-70.5 227,-61.32 229.69,-51.76 233.04,-43.4"/>
<polygon fill="#6f6f6f" stroke="#6f6f6f" stroke-width="2.5" points="236.26,-44.8 237.17,-34.24 229.87,-41.92 236.26,-44.8"/>
</a>
</g>
</g>
<!-- Failure&#45;&gt;Final -->
<g id="edge15" class="edge">
<title>Failure&#45;&gt;Final</title>
<path fill="none" stroke="#6f6f6f" stroke-width="2.5" d="M295.02,-79.3C285.71,-67.85 273.41,-52.72 263.46,-40.48"/>
<polygon fill="#6f6f6f" stroke="#6f6f6f" stroke-width="2.5" points="266.04,-38.1 257.01,-32.55 260.61,-42.52 266.04,-38.1"/>
</g>
</g>
</svg>
