<?xml version="1.0" encoding="UTF-8" standalone="no"?>
<!DOCTYPE svg PUBLIC "-//W3C//DTD SVG 1.1//EN"
 "http://www.w3.org/Graphics/SVG/1.1/DTD/svg11.dtd">
<!-- Generated by graphviz version 2.43.0 (0)
 -->
<!-- Title: CoAP_Server::Definite_Message Pages: 1 -->
<svg width="153pt" height="275pt"
 viewBox="0.00 0.00 153.40 275.40" xmlns="http://www.w3.org/2000/svg" xmlns:xlink="http://www.w3.org/1999/xlink">
<g id="graph0" class="graph" transform="scale(1 1) rotate(0) translate(7.2 268.2)">
<title>CoAP_Server::Definite_Message</title>
<polygon fill="transparent" stroke="transparent" points="-7.2,7.2 -7.2,-268.2 146.2,-268.2 146.2,7.2 -7.2,7.2"/>
<!-- Initial -->
<g id="node1" class="node">
<title>Initial</title>
<ellipse fill="#ffffff" stroke="#6f6f6f" cx="69.5" cy="-243" rx="18" ry="18"/>
</g>
<!-- intermediate_0 -->
<g id="node4" class="node">
<title>intermediate_0</title>
<polygon fill="none" stroke="#6f6f6f" stroke-width="0" points="111.5,-217 27.5,-217 27.5,-194 111.5,-194 111.5,-217"/>
<text text-anchor="middle" x="69.5" y="-201.8" font-family="Fira Code" font-size="14.00" fill="#6f6f6f">(⊤, 16, ⋆)</text>
</g>
<!-- Initial&#45;&gt;intermediate_0 -->
<g id="edge1" class="edge">
<title>Initial&#45;&gt;intermediate_0</title>
<path fill="none" stroke="#6f6f6f" stroke-width="2.5" d="M69.5,-224.67C69.5,-222.13 69.5,-219.59 69.5,-217.24"/>
</g>
<!-- Length -->
<g id="node2" class="node">
<title>Length</title>
<path fill="#009641" stroke="#6f6f6f" d="M111.5,-186C111.5,-186 27.5,-186 27.5,-186 21.5,-186 15.5,-180 15.5,-174 15.5,-174 15.5,-162 15.5,-162 15.5,-156 21.5,-150 27.5,-150 27.5,-150 111.5,-150 111.5,-150 117.5,-150 123.5,-156 123.5,-162 123.5,-162 123.5,-174 123.5,-174 123.5,-180 117.5,-186 111.5,-186"/>
<text text-anchor="middle" x="69.5" y="-164.3" font-family="Arimo" font-size="14.00" fill="#ffffff">Length</text>
</g>
<!-- intermediate_1 -->
<g id="node5" class="node">
<title>intermediate_1</title>
<polygon fill="none" stroke="#6f6f6f" stroke-width="0" points="139,-142 0,-142 0,-119 139,-119 139,-142"/>
<text text-anchor="middle" x="69.5" y="-126.8" font-family="Fira Code" font-size="14.00" fill="#6f6f6f">(⊤, Length * 8, ⋆)</text>
</g>
<!-- Length&#45;&gt;intermediate_1 -->
<g id="edge3" class="edge">
<title>Length&#45;&gt;intermediate_1</title>
<path fill="none" stroke="#6f6f6f" stroke-width="2.5" d="M69.5,-149.67C69.5,-147.13 69.5,-144.59 69.5,-142.24"/>
</g>
<!-- Message_Data -->
<g id="node3" class="node">
<title>Message_Data</title>
<path fill="#009641" stroke="#6f6f6f" d="M111.5,-111C111.5,-111 27.5,-111 27.5,-111 21.5,-111 15.5,-105 15.5,-99 15.5,-99 15.5,-87 15.5,-87 15.5,-81 21.5,-75 27.5,-75 27.5,-75 111.5,-75 111.5,-75 117.5,-75 123.5,-81 123.5,-87 123.5,-87 123.5,-99 123.5,-99 123.5,-105 117.5,-111 111.5,-111"/>
<text text-anchor="middle" x="69.5" y="-89.3" font-family="Arimo" font-size="14.00" fill="#ffffff">Message_Data</text>
</g>
<!-- intermediate_2 -->
<g id="node6" class="node">
<title>intermediate_2</title>
<polygon fill="none" stroke="#6f6f6f" stroke-width="0" points="107,-67 32,-67 32,-44 107,-44 107,-67"/>
<text text-anchor="middle" x="69.5" y="-51.8" font-family="Fira Code" font-size="14.00" fill="#6f6f6f">(⊤, 0, ⋆)</text>
</g>
<!-- Message_Data&#45;&gt;intermediate_2 -->
<g id="edge5" class="edge">
<title>Message_Data&#45;&gt;intermediate_2</title>
<path fill="none" stroke="#6f6f6f" stroke-width="2.5" d="M69.5,-74.67C69.5,-72.13 69.5,-69.59 69.5,-67.24"/>
</g>
<!-- intermediate_0&#45;&gt;Length -->
<g id="edge2" class="edge">
<title>intermediate_0&#45;&gt;Length</title>
<path fill="none" stroke="#6f6f6f" stroke-width="2.5" d="M69.5,-193.66C69.5,-193.51 69.5,-193.36 69.5,-193.21"/>
<polygon fill="#6f6f6f" stroke="#6f6f6f" stroke-width="2.5" points="73,-196.19 69.5,-186.19 66,-196.19 73,-196.19"/>
</g>
<!-- intermediate_1&#45;&gt;Message_Data -->
<g id="edge4" class="edge">
<title>intermediate_1&#45;&gt;Message_Data</title>
<path fill="none" stroke="#6f6f6f" stroke-width="2.5" d="M69.5,-118.66C69.5,-118.51 69.5,-118.36 69.5,-118.21"/>
<polygon fill="#6f6f6f" stroke="#6f6f6f" stroke-width="2.5" points="73,-121.19 69.5,-111.19 66,-121.19 73,-121.19"/>
</g>
<!-- Final -->
<g id="node7" class="node">
<title>Final</title>
<ellipse fill="#6f6f6f" stroke="#6f6f6f" cx="69.5" cy="-18" rx="18" ry="18"/>
</g>
<!-- intermediate_2&#45;&gt;Final -->
<g id="edge6" class="edge">
<title>intermediate_2&#45;&gt;Final</title>
<path fill="none" stroke="#6f6f6f" stroke-width="2.5" d="M69.5,-43.66C69.5,-43.51 69.5,-43.36 69.5,-43.21"/>
<polygon fill="#6f6f6f" stroke="#6f6f6f" stroke-width="2.5" points="73,-46.19 69.5,-36.19 66,-46.19 73,-46.19"/>
</g>
</g>
</svg>
