<?xml version="1.0" encoding="UTF-8" standalone="no"?>
<!DOCTYPE svg PUBLIC "-//W3C//DTD SVG 1.1//EN"
 "http://www.w3.org/Graphics/SVG/1.1/DTD/svg11.dtd">
<!-- Generated by graphviz version 2.43.0 (0)
 -->
<!-- Title: CoAP_Server::Application_Response Pages: 1 -->
<svg width="308pt" height="650pt"
 viewBox="0.00 0.00 308.40 650.40" xmlns="http://www.w3.org/2000/svg" xmlns:xlink="http://www.w3.org/1999/xlink">
<g id="graph0" class="graph" transform="scale(1 1) rotate(0) translate(7.2 643.2)">
<title>CoAP_Server::Application_Response</title>
<polygon fill="transparent" stroke="transparent" points="-7.2,7.2 -7.2,-643.2 301.2,-643.2 301.2,7.2 -7.2,7.2"/>
<!-- Initial -->
<g id="node1" class="node">
<title>Initial</title>
<ellipse fill="#ffffff" stroke="#6f6f6f" cx="147" cy="-618" rx="18" ry="18"/>
</g>
<!-- intermediate_1 -->
<g id="node10" class="node">
<title>intermediate_1</title>
<polygon fill="none" stroke="#6f6f6f" stroke-width="0" points="184.5,-592 109.5,-592 109.5,-569 184.5,-569 184.5,-592"/>
<text text-anchor="middle" x="147" y="-576.8" font-family="Fira Code" font-size="14.00" fill="#6f6f6f">(⊤, 3, ⋆)</text>
</g>
<!-- Initial&#45;&gt;intermediate_1 -->
<g id="edge3" class="edge">
<title>Initial&#45;&gt;intermediate_1</title>
<path fill="none" stroke="#6f6f6f" stroke-width="2.5" d="M147,-599.67C147,-597.13 147,-594.59 147,-592.24"/>
</g>
<!-- Message_Class -->
<g id="node2" class="node">
<title>Message_Class</title>
<path fill="#009641" stroke="#6f6f6f" d="M191.5,-561C191.5,-561 102.5,-561 102.5,-561 96.5,-561 90.5,-555 90.5,-549 90.5,-549 90.5,-537 90.5,-537 90.5,-531 96.5,-525 102.5,-525 102.5,-525 191.5,-525 191.5,-525 197.5,-525 203.5,-531 203.5,-537 203.5,-537 203.5,-549 203.5,-549 203.5,-555 197.5,-561 191.5,-561"/>
<text text-anchor="middle" x="147" y="-539.3" font-family="Arimo" font-size="14.00" fill="#ffffff">Message_Class</text>
</g>
<!-- intermediate_2 -->
<g id="node11" class="node">
<title>intermediate_2</title>
<polygon fill="none" stroke="#6f6f6f" stroke-width="0" points="184.5,-517 109.5,-517 109.5,-494 184.5,-494 184.5,-517"/>
<text text-anchor="middle" x="147" y="-501.8" font-family="Fira Code" font-size="14.00" fill="#6f6f6f">(⊤, 5, ⋆)</text>
</g>
<!-- Message_Class&#45;&gt;intermediate_2 -->
<g id="edge5" class="edge">
<title>Message_Class&#45;&gt;intermediate_2</title>
<path fill="none" stroke="#6f6f6f" stroke-width="2.5" d="M147,-524.67C147,-522.13 147,-519.59 147,-517.24"/>
</g>
<!-- Success_Code -->
<g id="node3" class="node">
<title>Success_Code</title>
<path fill="#009641" stroke="#6f6f6f" d="M189,-486C189,-486 105,-486 105,-486 99,-486 93,-480 93,-474 93,-474 93,-462 93,-462 93,-456 99,-450 105,-450 105,-450 189,-450 189,-450 195,-450 201,-456 201,-462 201,-462 201,-474 201,-474 201,-480 195,-486 189,-486"/>
<text text-anchor="middle" x="147" y="-464.3" font-family="Arimo" font-size="14.00" fill="#ffffff">Success_Code</text>
</g>
<!-- intermediate_7 -->
<g id="node17" class="node">
<title>intermediate_7</title>
<polygon fill="none" stroke="#6f6f6f" stroke-width="0" points="184.5,-442 109.5,-442 109.5,-419 184.5,-419 184.5,-442"/>
<text text-anchor="middle" x="147" y="-426.8" font-family="Fira Code" font-size="14.00" fill="#6f6f6f">(⊤, 5, ⋆)</text>
</g>
<!-- Success_Code&#45;&gt;intermediate_7 -->
<g id="edge15" class="edge">
<title>Success_Code&#45;&gt;intermediate_7</title>
<path fill="none" stroke="#6f6f6f" stroke-width="2.5" d="M147,-449.67C147,-447.13 147,-444.59 147,-442.24"/>
</g>
<!-- Client_Error_Code -->
<g id="node4" class="node">
<title>Client_Error_Code</title>
<path fill="#009641" stroke="#6f6f6f" d="M199,-411C199,-411 95,-411 95,-411 89,-411 83,-405 83,-399 83,-399 83,-387 83,-387 83,-381 89,-375 95,-375 95,-375 199,-375 199,-375 205,-375 211,-381 211,-387 211,-387 211,-399 211,-399 211,-405 205,-411 199,-411"/>
<text text-anchor="middle" x="147" y="-389.3" font-family="Arimo" font-size="14.00" fill="#ffffff">Client_Error_Code</text>
</g>
<!-- intermediate_0 -->
<g id="node9" class="node">
<title>intermediate_0</title>
<polygon fill="none" stroke="#6f6f6f" stroke-width="0" points="184.5,-367 109.5,-367 109.5,-344 184.5,-344 184.5,-367"/>
<text text-anchor="middle" x="147" y="-351.8" font-family="Fira Code" font-size="14.00" fill="#6f6f6f">(⊤, 5, ⋆)</text>
</g>
<!-- Client_Error_Code&#45;&gt;intermediate_0 -->
<g id="edge1" class="edge">
<title>Client_Error_Code&#45;&gt;intermediate_0</title>
<path fill="none" stroke="#6f6f6f" stroke-width="2.5" d="M147,-374.67C147,-372.13 147,-369.59 147,-367.24"/>
</g>
<!-- Server_Error_Code -->
<g id="node5" class="node">
<title>Server_Error_Code</title>
<path fill="#009641" stroke="#6f6f6f" d="M202,-336C202,-336 92,-336 92,-336 86,-336 80,-330 80,-324 80,-324 80,-312 80,-312 80,-306 86,-300 92,-300 92,-300 202,-300 202,-300 208,-300 214,-306 214,-312 214,-312 214,-324 214,-324 214,-330 208,-336 202,-336"/>
<text text-anchor="middle" x="147" y="-314.3" font-family="Arimo" font-size="14.00" fill="#ffffff">Server_Error_Code</text>
</g>
<!-- intermediate_6 -->
<g id="node16" class="node">
<title>intermediate_6</title>
<polygon fill="none" stroke="#6f6f6f" stroke-width="0" points="184.5,-292 109.5,-292 109.5,-269 184.5,-269 184.5,-292"/>
<text text-anchor="middle" x="147" y="-276.8" font-family="Fira Code" font-size="14.00" fill="#6f6f6f">(⊤, 6, ⋆)</text>
</g>
<!-- Server_Error_Code&#45;&gt;intermediate_6 -->
<g id="edge13" class="edge">
<title>Server_Error_Code&#45;&gt;intermediate_6</title>
<path fill="none" stroke="#6f6f6f" stroke-width="2.5" d="M147,-299.67C147,-297.13 147,-294.59 147,-292.24"/>
</g>
<!-- Padding -->
<g id="node6" class="node">
<title>Padding</title>
<path fill="#009641" stroke="#6f6f6f" d="M189,-261C189,-261 105,-261 105,-261 99,-261 93,-255 93,-249 93,-249 93,-237 93,-237 93,-231 99,-225 105,-225 105,-225 189,-225 189,-225 195,-225 201,-231 201,-237 201,-237 201,-249 201,-249 201,-255 195,-261 189,-261"/>
<text text-anchor="middle" x="147" y="-239.3" font-family="Arimo" font-size="14.00" fill="#ffffff">Padding</text>
</g>
<!-- intermediate_5 -->
<g id="node15" class="node">
<title>intermediate_5</title>
<polygon fill="none" stroke="#6f6f6f" stroke-width="0" points="189,-217 105,-217 105,-194 189,-194 189,-217"/>
<text text-anchor="middle" x="147" y="-201.8" font-family="Fira Code" font-size="14.00" fill="#6f6f6f">(⊤, 16, ⋆)</text>
</g>
<!-- Padding&#45;&gt;intermediate_5 -->
<g id="edge11" class="edge">
<title>Padding&#45;&gt;intermediate_5</title>
<path fill="none" stroke="#6f6f6f" stroke-width="2.5" d="M147,-224.67C147,-222.13 147,-219.59 147,-217.24"/>
</g>
<!-- Options_And_Payload_Length -->
<g id="node7" class="node">
<title>Options_And_Payload_Length</title>
<path fill="#009641" stroke="#6f6f6f" d="M235,-186C235,-186 59,-186 59,-186 53,-186 47,-180 47,-174 47,-174 47,-162 47,-162 47,-156 53,-150 59,-150 59,-150 235,-150 235,-150 241,-150 247,-156 247,-162 247,-162 247,-174 247,-174 247,-180 241,-186 235,-186"/>
<text text-anchor="middle" x="147" y="-164.3" font-family="Arimo" font-size="14.00" fill="#ffffff">Options_And_Payload_Length</text>
</g>
<!-- intermediate_3 -->
<g id="node12" class="node">
<title>intermediate_3</title>
<polygon fill="none" stroke="#6f6f6f" stroke-width="0" points="294,-142 0,-142 0,-119 294,-119 294,-142"/>
<text text-anchor="middle" x="147" y="-126.8" font-family="Fira Code" font-size="14.00" fill="#6f6f6f">(⊤, Options_And_Payload_Length * 8, ⋆)</text>
</g>
<!-- Options_And_Payload_Length&#45;&gt;intermediate_3 -->
<g id="edge7" class="edge">
<title>Options_And_Payload_Length&#45;&gt;intermediate_3</title>
<path fill="none" stroke="#6f6f6f" stroke-width="2.5" d="M147,-149.67C147,-147.13 147,-144.59 147,-142.24"/>
</g>
<!-- Options_And_Payload_Options_And_Payload -->
<g id="node8" class="node">
<title>Options_And_Payload_Options_And_Payload</title>
<path fill="#009641" stroke="#6f6f6f" d="M282,-111C282,-111 12,-111 12,-111 6,-111 0,-105 0,-99 0,-99 0,-87 0,-87 0,-81 6,-75 12,-75 12,-75 282,-75 282,-75 288,-75 294,-81 294,-87 294,-87 294,-99 294,-99 294,-105 288,-111 282,-111"/>
<text text-anchor="middle" x="147" y="-89.3" font-family="Arimo" font-size="14.00" fill="#ffffff">Options_And_Payload_Options_And_Payload</text>
</g>
<!-- intermediate_4 -->
<g id="node13" class="node">
<title>intermediate_4</title>
<polygon fill="none" stroke="#6f6f6f" stroke-width="0" points="184.5,-67 109.5,-67 109.5,-44 184.5,-44 184.5,-67"/>
<text text-anchor="middle" x="147" y="-51.8" font-family="Fira Code" font-size="14.00" fill="#6f6f6f">(⊤, 0, ⋆)</text>
</g>
<!-- Options_And_Payload_Options_And_Payload&#45;&gt;intermediate_4 -->
<g id="edge9" class="edge">
<title>Options_And_Payload_Options_And_Payload&#45;&gt;intermediate_4</title>
<path fill="none" stroke="#6f6f6f" stroke-width="2.5" d="M147,-74.67C147,-72.13 147,-69.59 147,-67.24"/>
</g>
<!-- intermediate_0&#45;&gt;Server_Error_Code -->
<g id="edge2" class="edge">
<title>intermediate_0&#45;&gt;Server_Error_Code</title>
<path fill="none" stroke="#6f6f6f" stroke-width="2.5" d="M147,-343.66C147,-343.51 147,-343.36 147,-343.21"/>
<polygon fill="#6f6f6f" stroke="#6f6f6f" stroke-width="2.5" points="150.5,-346.19 147,-336.19 143.5,-346.19 150.5,-346.19"/>
</g>
<!-- intermediate_1&#45;&gt;Message_Class -->
<g id="edge4" class="edge">
<title>intermediate_1&#45;&gt;Message_Class</title>
<path fill="none" stroke="#6f6f6f" stroke-width="2.5" d="M147,-568.66C147,-568.51 147,-568.36 147,-568.21"/>
<polygon fill="#6f6f6f" stroke="#6f6f6f" stroke-width="2.5" points="150.5,-571.19 147,-561.19 143.5,-571.19 150.5,-571.19"/>
</g>
<!-- intermediate_2&#45;&gt;Success_Code -->
<g id="edge6" class="edge">
<title>intermediate_2&#45;&gt;Success_Code</title>
<path fill="none" stroke="#6f6f6f" stroke-width="2.5" d="M147,-493.66C147,-493.51 147,-493.36 147,-493.21"/>
<polygon fill="#6f6f6f" stroke="#6f6f6f" stroke-width="2.5" points="150.5,-496.19 147,-486.19 143.5,-496.19 150.5,-496.19"/>
</g>
<!-- intermediate_3&#45;&gt;Options_And_Payload_Options_And_Payload -->
<g id="edge8" class="edge">
<title>intermediate_3&#45;&gt;Options_And_Payload_Options_And_Payload</title>
<path fill="none" stroke="#6f6f6f" stroke-width="2.5" d="M147,-118.66C147,-118.51 147,-118.36 147,-118.21"/>
<polygon fill="#6f6f6f" stroke="#6f6f6f" stroke-width="2.5" points="150.5,-121.19 147,-111.19 143.5,-121.19 150.5,-121.19"/>
</g>
<!-- Final -->
<g id="node14" class="node">
<title>Final</title>
<ellipse fill="#6f6f6f" stroke="#6f6f6f" cx="147" cy="-18" rx="18" ry="18"/>
</g>
<!-- intermediate_4&#45;&gt;Final -->
<g id="edge10" class="edge">
<title>intermediate_4&#45;&gt;Final</title>
<path fill="none" stroke="#6f6f6f" stroke-width="2.5" d="M147,-43.66C147,-43.51 147,-43.36 147,-43.21"/>
<polygon fill="#6f6f6f" stroke="#6f6f6f" stroke-width="2.5" points="150.5,-46.19 147,-36.19 143.5,-46.19 150.5,-46.19"/>
</g>
<!-- intermediate_5&#45;&gt;Options_And_Payload_Length -->
<g id="edge12" class="edge">
<title>intermediate_5&#45;&gt;Options_And_Payload_Length</title>
<path fill="none" stroke="#6f6f6f" stroke-width="2.5" d="M147,-193.66C147,-193.51 147,-193.36 147,-193.21"/>
<polygon fill="#6f6f6f" stroke="#6f6f6f" stroke-width="2.5" points="150.5,-196.19 147,-186.19 143.5,-196.19 150.5,-196.19"/>
</g>
<!-- intermediate_6&#45;&gt;Padding -->
<g id="edge14" class="edge">
<title>intermediate_6&#45;&gt;Padding</title>
<path fill="none" stroke="#6f6f6f" stroke-width="2.5" d="M147,-268.66C147,-268.51 147,-268.36 147,-268.21"/>
<polygon fill="#6f6f6f" stroke="#6f6f6f" stroke-width="2.5" points="150.5,-271.19 147,-261.19 143.5,-271.19 150.5,-271.19"/>
</g>
<!-- intermediate_7&#45;&gt;Client_Error_Code -->
<g id="edge16" class="edge">
<title>intermediate_7&#45;&gt;Client_Error_Code</title>
<path fill="none" stroke="#6f6f6f" stroke-width="2.5" d="M147,-418.66C147,-418.51 147,-418.36 147,-418.21"/>
<polygon fill="#6f6f6f" stroke="#6f6f6f" stroke-width="2.5" points="150.5,-421.19 147,-411.19 143.5,-421.19 150.5,-421.19"/>
</g>
</g>
</svg>
