<?xml version="1.0" encoding="UTF-8" standalone="no"?>
<!DOCTYPE svg PUBLIC "-//W3C//DTD SVG 1.1//EN"
 "http://www.w3.org/Graphics/SVG/1.1/DTD/svg11.dtd">
<!-- Generated by graphviz version 2.43.0 (0)
 -->
<!-- Title: CoAP_Server::Server_Loop Pages: 1 -->
<svg width="253pt" height="289pt"
 viewBox="0.00 0.00 253.40 288.90" xmlns="http://www.w3.org/2000/svg" xmlns:xlink="http://www.w3.org/1999/xlink">
<g id="graph0" class="graph" transform="scale(1 1) rotate(0) translate(7.2 281.7)">
<title>CoAP_Server::Server_Loop</title>
<polygon fill="transparent" stroke="transparent" points="-7.2,7.2 -7.2,-281.7 246.2,-281.7 246.2,7.2 -7.2,7.2"/>
<!-- Receive_Request -->
<g id="node1" class="node">
<title>Receive_Request</title>
<path fill="#ffffff" stroke="#6f6f6f" d="M172.5,-274.5C172.5,-274.5 73.5,-274.5 73.5,-274.5 67.5,-274.5 61.5,-268.5 61.5,-262.5 61.5,-262.5 61.5,-250.5 61.5,-250.5 61.5,-244.5 67.5,-238.5 73.5,-238.5 73.5,-238.5 172.5,-238.5 172.5,-238.5 178.5,-238.5 184.5,-244.5 184.5,-250.5 184.5,-250.5 184.5,-262.5 184.5,-262.5 184.5,-268.5 178.5,-274.5 172.5,-274.5"/>
<text text-anchor="middle" x="123" y="-252.8" font-family="Arimo" font-size="14.00">Receive_Request</text>
</g>
<!-- Treat_Request -->
<g id="node2" class="node">
<title>Treat_Request</title>
<path fill="#009641" stroke="#6f6f6f" d="M124,-195C124,-195 40,-195 40,-195 34,-195 28,-189 28,-183 28,-183 28,-171 28,-171 28,-165 34,-159 40,-159 40,-159 124,-159 124,-159 130,-159 136,-165 136,-171 136,-171 136,-183 136,-183 136,-189 130,-195 124,-195"/>
<text text-anchor="middle" x="82" y="-173.3" font-family="Arimo" font-size="14.00" fill="#ffffff">Treat_Request</text>
</g>
<!-- Receive_Request&#45;&gt;Treat_Request -->
<g id="edge1" class="edge">
<title>Receive_Request&#45;&gt;Treat_Request</title>
<path fill="none" stroke="#6f6f6f" stroke-width="2.5" d="M113.9,-238.3C108.59,-228.27 101.79,-215.41 95.83,-204.14"/>
<polygon fill="#6f6f6f" stroke="#6f6f6f" stroke-width="2.5" points="98.84,-202.35 91.07,-195.15 92.66,-205.63 98.84,-202.35"/>
</g>
<!-- Send_Response -->
<g id="node3" class="node">
<title>Send_Response</title>
<path fill="#009641" stroke="#6f6f6f" d="M128,-36C128,-36 36,-36 36,-36 30,-36 24,-30 24,-24 24,-24 24,-12 24,-12 24,-6 30,0 36,0 36,0 128,0 128,0 134,0 140,-6 140,-12 140,-12 140,-24 140,-24 140,-30 134,-36 128,-36"/>
<text text-anchor="middle" x="82" y="-14.3" font-family="Arimo" font-size="14.00" fill="#ffffff">Send_Response</text>
</g>
<!-- Treat_Request&#45;&gt;Send_Response -->
<g id="edge2" class="edge">
<title>Treat_Request&#45;&gt;Send_Response</title>
<g id="a_edge2"><a xlink:title="Treat_Request → Send_Response&#10;&#10;[0] Response&#39;Valid">
<path fill="none" stroke="#6f6f6f" stroke-width="2.5" d="M27.76,-160.66C12.51,-152.85 0,-141.31 0,-124.5 0,-124.5 0,-124.5 0,-70.5 0,-58.29 6.61,-48.86 16.07,-41.61"/>
<polygon fill="#6f6f6f" stroke="#6f6f6f" stroke-width="2.5" points="18.15,-44.44 24.6,-36.03 14.32,-38.58 18.15,-44.44"/>
</a>
</g>
</g>
<!-- Failure -->
<g id="node4" class="node">
<title>Failure</title>
<path fill="#009641" stroke="#6f6f6f" d="M124,-115.5C124,-115.5 40,-115.5 40,-115.5 34,-115.5 28,-109.5 28,-103.5 28,-103.5 28,-91.5 28,-91.5 28,-85.5 34,-79.5 40,-79.5 40,-79.5 124,-79.5 124,-79.5 130,-79.5 136,-85.5 136,-91.5 136,-91.5 136,-103.5 136,-103.5 136,-109.5 130,-115.5 124,-115.5"/>
<text text-anchor="middle" x="82" y="-93.8" font-family="Arimo" font-size="14.00" fill="#ffffff">Failure</text>
</g>
<!-- Treat_Request&#45;&gt;Failure -->
<g id="edge3" class="edge">
<title>Treat_Request&#45;&gt;Failure</title>
<path fill="none" stroke="#6f6f6f" stroke-width="2.5" d="M82,-158.8C82,-149.07 82,-136.68 82,-125.66"/>
<polygon fill="#6f6f6f" stroke="#6f6f6f" stroke-width="2.5" points="85.5,-125.65 82,-115.65 78.5,-125.65 85.5,-125.65"/>
</g>
<!-- Send_Response&#45;&gt;Receive_Request -->
<g id="edge4" class="edge">
<title>Send_Response&#45;&gt;Receive_Request</title>
<path fill="none" stroke="#6f6f6f" stroke-width="2.5" d="M139.4,-36.03C153.18,-43.79 164,-54.87 164,-70.5 164,-204 164,-204 164,-204 164,-213.9 159.3,-223 153.09,-230.71"/>
<polygon fill="#6f6f6f" stroke="#6f6f6f" stroke-width="2.5" points="150.11,-228.77 145.9,-238.49 155.25,-233.52 150.11,-228.77"/>
</g>
<!-- Failure&#45;&gt;Send_Response -->
<g id="edge5" class="edge">
<title>Failure&#45;&gt;Send_Response</title>
<path fill="none" stroke="#6f6f6f" stroke-width="2.5" d="M82,-79.3C82,-69.57 82,-57.18 82,-46.16"/>
<polygon fill="#6f6f6f" stroke="#6f6f6f" stroke-width="2.5" points="85.5,-46.15 82,-36.15 78.5,-46.15 85.5,-46.15"/>
</g>
<!-- Final -->
<g id="node5" class="node">
<title>Final</title>
<ellipse fill="#6f6f6f" stroke="#6f6f6f" cx="221" cy="-256.5" rx="18" ry="18"/>
</g>
</g>
</svg>
