<?xml version="1.0" encoding="UTF-8" standalone="no"?>
<!DOCTYPE svg PUBLIC "-//W3C//DTD SVG 1.1//EN"
 "http://www.w3.org/Graphics/SVG/1.1/DTD/svg11.dtd">
<!-- Generated by graphviz version 2.43.0 (0)
 -->
<!-- Title: CoAP::CoAP_Message Pages: 1 -->
<svg width="1010pt" height="725pt"
 viewBox="0.00 0.00 1010.40 725.40" xmlns="http://www.w3.org/2000/svg" xmlns:xlink="http://www.w3.org/1999/xlink">
<g id="graph0" class="graph" transform="scale(1 1) rotate(0) translate(7.2 718.2)">
<title>CoAP::CoAP_Message</title>
<polygon fill="transparent" stroke="transparent" points="-7.2,7.2 -7.2,-718.2 1003.2,-718.2 1003.2,7.2 -7.2,7.2"/>
<!-- Initial -->
<g id="node1" class="node">
<title>Initial</title>
<ellipse fill="#ffffff" stroke="#6f6f6f" cx="502" cy="-693" rx="18" ry="18"/>
</g>
<!-- intermediate_5 -->
<g id="node18" class="node">
<title>intermediate_5</title>
<polygon fill="none" stroke="#6f6f6f" stroke-width="0" points="539.5,-667 464.5,-667 464.5,-644 539.5,-644 539.5,-667"/>
<text text-anchor="middle" x="502" y="-651.8" font-family="Fira Code" font-size="14.00" fill="#6f6f6f">(⊤, 2, ⋆)</text>
</g>
<!-- Initial&#45;&gt;intermediate_5 -->
<g id="edge11" class="edge">
<title>Initial&#45;&gt;intermediate_5</title>
<path fill="none" stroke="#6f6f6f" stroke-width="2.5" d="M502,-674.67C502,-672.13 502,-669.59 502,-667.24"/>
</g>
<!-- Ver -->
<g id="node2" class="node">
<title>Ver</title>
<path fill="#009641" stroke="#6f6f6f" d="M544,-636C544,-636 460,-636 460,-636 454,-636 448,-630 448,-624 448,-624 448,-612 448,-612 448,-606 454,-600 460,-600 460,-600 544,-600 544,-600 550,-600 556,-606 556,-612 556,-612 556,-624 556,-624 556,-630 550,-636 544,-636"/>
<text text-anchor="middle" x="502" y="-614.3" font-family="Arimo" font-size="14.00" fill="#ffffff">Ver</text>
</g>
<!-- intermediate_14 -->
<g id="node28" class="node">
<title>intermediate_14</title>
<polygon fill="none" stroke="#6f6f6f" stroke-width="0" points="539.5,-592 464.5,-592 464.5,-569 539.5,-569 539.5,-592"/>
<text text-anchor="middle" x="502" y="-576.8" font-family="Fira Code" font-size="14.00" fill="#6f6f6f">(⊤, 2, ⋆)</text>
</g>
<!-- Ver&#45;&gt;intermediate_14 -->
<g id="edge29" class="edge">
<title>Ver&#45;&gt;intermediate_14</title>
<path fill="none" stroke="#6f6f6f" stroke-width="2.5" d="M502,-599.67C502,-597.13 502,-594.59 502,-592.24"/>
</g>
<!-- T -->
<g id="node3" class="node">
<title>T</title>
<path fill="#009641" stroke="#6f6f6f" d="M544,-561C544,-561 460,-561 460,-561 454,-561 448,-555 448,-549 448,-549 448,-537 448,-537 448,-531 454,-525 460,-525 460,-525 544,-525 544,-525 550,-525 556,-531 556,-537 556,-537 556,-549 556,-549 556,-555 550,-561 544,-561"/>
<text text-anchor="middle" x="502" y="-539.3" font-family="Arimo" font-size="14.00" fill="#ffffff">T</text>
</g>
<!-- intermediate_11 -->
<g id="node25" class="node">
<title>intermediate_11</title>
<polygon fill="none" stroke="#6f6f6f" stroke-width="0" points="539.5,-517 464.5,-517 464.5,-494 539.5,-494 539.5,-517"/>
<text text-anchor="middle" x="502" y="-501.8" font-family="Fira Code" font-size="14.00" fill="#6f6f6f">(⊤, 4, ⋆)</text>
</g>
<!-- T&#45;&gt;intermediate_11 -->
<g id="edge23" class="edge">
<title>T&#45;&gt;intermediate_11</title>
<path fill="none" stroke="#6f6f6f" stroke-width="2.5" d="M502,-524.67C502,-522.13 502,-519.59 502,-517.24"/>
</g>
<!-- TKL -->
<g id="node4" class="node">
<title>TKL</title>
<path fill="#009641" stroke="#6f6f6f" d="M544,-486C544,-486 460,-486 460,-486 454,-486 448,-480 448,-474 448,-474 448,-462 448,-462 448,-456 454,-450 460,-450 460,-450 544,-450 544,-450 550,-450 556,-456 556,-462 556,-462 556,-474 556,-474 556,-480 550,-486 544,-486"/>
<text text-anchor="middle" x="502" y="-464.3" font-family="Arimo" font-size="14.00" fill="#ffffff">TKL</text>
</g>
<!-- intermediate_12 -->
<g id="node26" class="node">
<title>intermediate_12</title>
<polygon fill="none" stroke="#6f6f6f" stroke-width="0" points="539.5,-442 464.5,-442 464.5,-419 539.5,-419 539.5,-442"/>
<text text-anchor="middle" x="502" y="-426.8" font-family="Fira Code" font-size="14.00" fill="#6f6f6f">(⊤, 3, ⋆)</text>
</g>
<!-- TKL&#45;&gt;intermediate_12 -->
<g id="edge25" class="edge">
<title>TKL&#45;&gt;intermediate_12</title>
<path fill="none" stroke="#6f6f6f" stroke-width="2.5" d="M502,-449.67C502,-447.13 502,-444.59 502,-442.24"/>
</g>
<!-- Class -->
<g id="node5" class="node">
<title>Class</title>
<path fill="#009641" stroke="#6f6f6f" d="M544,-411C544,-411 460,-411 460,-411 454,-411 448,-405 448,-399 448,-399 448,-387 448,-387 448,-381 454,-375 460,-375 460,-375 544,-375 544,-375 550,-375 556,-381 556,-387 556,-387 556,-399 556,-399 556,-405 550,-411 544,-411"/>
<text text-anchor="middle" x="502" y="-389.3" font-family="Arimo" font-size="14.00" fill="#ffffff">Class</text>
</g>
<!-- intermediate_0 -->
<g id="node13" class="node">
<title>intermediate_0</title>
<polygon fill="none" stroke="#6f6f6f" stroke-width="0" points="246,-367 0,-367 0,-344 246,-344 246,-367"/>
<text text-anchor="middle" x="123" y="-351.8" font-family="Fira Code" font-size="14.00" fill="#6f6f6f">(Class = CoAP::Client_Error, 5, ⋆)</text>
</g>
<!-- Class&#45;&gt;intermediate_0 -->
<g id="edge1" class="edge">
<title>Class&#45;&gt;intermediate_0</title>
<path fill="none" stroke="#6f6f6f" stroke-width="2.5" d="M447.7,-386.91C392.54,-381.75 305.48,-373.59 235.4,-367.03"/>
</g>
<!-- intermediate_1 -->
<g id="node14" class="node">
<title>intermediate_1</title>
<polygon fill="none" stroke="#6f6f6f" stroke-width="0" points="486,-367 264,-367 264,-344 486,-344 486,-367"/>
<text text-anchor="middle" x="375" y="-351.8" font-family="Fira Code" font-size="14.00" fill="#6f6f6f">(Class = CoAP::Request, 5, ⋆)</text>
</g>
<!-- Class&#45;&gt;intermediate_1 -->
<g id="edge3" class="edge">
<title>Class&#45;&gt;intermediate_1</title>
<path fill="none" stroke="#6f6f6f" stroke-width="2.5" d="M447.77,-376.84C436.04,-373.56 423.88,-370.16 412.93,-367.1"/>
</g>
<!-- intermediate_2 -->
<g id="node15" class="node">
<title>intermediate_2</title>
<polygon fill="none" stroke="#6f6f6f" stroke-width="0" points="756,-367 504,-367 504,-344 756,-344 756,-367"/>
<text text-anchor="middle" x="630" y="-351.8" font-family="Fira Code" font-size="14.00" fill="#6f6f6f">(Class = CoAP::Server_Error, 5, ⋆)</text>
</g>
<!-- Class&#45;&gt;intermediate_2 -->
<g id="edge5" class="edge">
<title>Class&#45;&gt;intermediate_2</title>
<path fill="none" stroke="#6f6f6f" stroke-width="2.5" d="M556.28,-376.94C568.28,-373.62 580.73,-370.16 591.92,-367.06"/>
</g>
<!-- intermediate_3 -->
<g id="node16" class="node">
<title>intermediate_3</title>
<polygon fill="none" stroke="#6f6f6f" stroke-width="0" points="996,-367 774,-367 774,-344 996,-344 996,-367"/>
<text text-anchor="middle" x="885" y="-351.8" font-family="Fira Code" font-size="14.00" fill="#6f6f6f">(Class = CoAP::Success, 5, ⋆)</text>
</g>
<!-- Class&#45;&gt;intermediate_3 -->
<g id="edge7" class="edge">
<title>Class&#45;&gt;intermediate_3</title>
<path fill="none" stroke="#6f6f6f" stroke-width="2.5" d="M556.06,-386.99C612.35,-381.77 702.14,-373.45 773.69,-366.82"/>
</g>
<!-- Client_Error_Code -->
<g id="node6" class="node">
<title>Client_Error_Code</title>
<path fill="#009641" stroke="#6f6f6f" d="M262,-336C262,-336 158,-336 158,-336 152,-336 146,-330 146,-324 146,-324 146,-312 146,-312 146,-306 152,-300 158,-300 158,-300 262,-300 262,-300 268,-300 274,-306 274,-312 274,-312 274,-324 274,-324 274,-330 268,-336 262,-336"/>
<text text-anchor="middle" x="210" y="-314.3" font-family="Arimo" font-size="14.00" fill="#ffffff">Client_Error_Code</text>
</g>
<!-- intermediate_4 -->
<g id="node17" class="node">
<title>intermediate_4</title>
<polygon fill="none" stroke="#6f6f6f" stroke-width="0" points="322,-292 238,-292 238,-269 322,-269 322,-292"/>
<text text-anchor="middle" x="280" y="-276.8" font-family="Fira Code" font-size="14.00" fill="#6f6f6f">(⊤, 16, ⋆)</text>
</g>
<!-- Client_Error_Code&#45;&gt;intermediate_4 -->
<g id="edge9" class="edge">
<title>Client_Error_Code&#45;&gt;intermediate_4</title>
<path fill="none" stroke="#6f6f6f" stroke-width="2.5" d="M243.77,-299.87C248.94,-297.25 254.15,-294.61 258.95,-292.18"/>
</g>
<!-- Method -->
<g id="node7" class="node">
<title>Method</title>
<path fill="#009641" stroke="#6f6f6f" d="M446,-336C446,-336 362,-336 362,-336 356,-336 350,-330 350,-324 350,-324 350,-312 350,-312 350,-306 356,-300 362,-300 362,-300 446,-300 446,-300 452,-300 458,-306 458,-312 458,-312 458,-324 458,-324 458,-330 452,-336 446,-336"/>
<text text-anchor="middle" x="404" y="-314.3" font-family="Arimo" font-size="14.00" fill="#ffffff">Method</text>
</g>
<!-- intermediate_7 -->
<g id="node20" class="node">
<title>intermediate_7</title>
<polygon fill="none" stroke="#6f6f6f" stroke-width="0" points="470,-292 386,-292 386,-269 470,-269 470,-292"/>
<text text-anchor="middle" x="428" y="-276.8" font-family="Fira Code" font-size="14.00" fill="#6f6f6f">(⊤, 16, ⋆)</text>
</g>
<!-- Method&#45;&gt;intermediate_7 -->
<g id="edge15" class="edge">
<title>Method&#45;&gt;intermediate_7</title>
<path fill="none" stroke="#6f6f6f" stroke-width="2.5" d="M415.72,-299.67C417.43,-297.13 419.15,-294.59 420.74,-292.24"/>
</g>
<!-- Server_Error_Code -->
<g id="node8" class="node">
<title>Server_Error_Code</title>
<path fill="#009641" stroke="#6f6f6f" d="M656,-336C656,-336 546,-336 546,-336 540,-336 534,-330 534,-324 534,-324 534,-312 534,-312 534,-306 540,-300 546,-300 546,-300 656,-300 656,-300 662,-300 668,-306 668,-312 668,-312 668,-324 668,-324 668,-330 662,-336 656,-336"/>
<text text-anchor="middle" x="601" y="-314.3" font-family="Arimo" font-size="14.00" fill="#ffffff">Server_Error_Code</text>
</g>
<!-- intermediate_9 -->
<g id="node23" class="node">
<title>intermediate_9</title>
<polygon fill="none" stroke="#6f6f6f" stroke-width="0" points="619,-292 535,-292 535,-269 619,-269 619,-292"/>
<text text-anchor="middle" x="577" y="-276.8" font-family="Fira Code" font-size="14.00" fill="#6f6f6f">(⊤, 16, ⋆)</text>
</g>
<!-- Server_Error_Code&#45;&gt;intermediate_9 -->
<g id="edge19" class="edge">
<title>Server_Error_Code&#45;&gt;intermediate_9</title>
<path fill="none" stroke="#6f6f6f" stroke-width="2.5" d="M589.28,-299.67C587.57,-297.13 585.85,-294.59 584.26,-292.24"/>
</g>
<!-- Success_Code -->
<g id="node9" class="node">
<title>Success_Code</title>
<path fill="#009641" stroke="#6f6f6f" d="M869,-336C869,-336 785,-336 785,-336 779,-336 773,-330 773,-324 773,-324 773,-312 773,-312 773,-306 779,-300 785,-300 785,-300 869,-300 869,-300 875,-300 881,-306 881,-312 881,-312 881,-324 881,-324 881,-330 875,-336 869,-336"/>
<text text-anchor="middle" x="827" y="-314.3" font-family="Arimo" font-size="14.00" fill="#ffffff">Success_Code</text>
</g>
<!-- intermediate_10 -->
<g id="node24" class="node">
<title>intermediate_10</title>
<polygon fill="none" stroke="#6f6f6f" stroke-width="0" points="807,-292 723,-292 723,-269 807,-269 807,-292"/>
<text text-anchor="middle" x="765" y="-276.8" font-family="Fira Code" font-size="14.00" fill="#6f6f6f">(⊤, 16, ⋆)</text>
</g>
<!-- Success_Code&#45;&gt;intermediate_10 -->
<g id="edge21" class="edge">
<title>Success_Code&#45;&gt;intermediate_10</title>
<path fill="none" stroke="#6f6f6f" stroke-width="2.5" d="M797.09,-299.87C792.51,-297.25 787.89,-294.61 783.65,-292.18"/>
</g>
<!-- Message_ID -->
<g id="node10" class="node">
<title>Message_ID</title>
<path fill="#009641" stroke="#6f6f6f" d="M544,-261C544,-261 460,-261 460,-261 454,-261 448,-255 448,-249 448,-249 448,-237 448,-237 448,-231 454,-225 460,-225 460,-225 544,-225 544,-225 550,-225 556,-231 556,-237 556,-237 556,-249 556,-249 556,-255 550,-261 544,-261"/>
<text text-anchor="middle" x="502" y="-239.3" font-family="Arimo" font-size="14.00" fill="#ffffff">Message_ID</text>
</g>
<!-- intermediate_6 -->
<g id="node19" class="node">
<title>intermediate_6</title>
<polygon fill="none" stroke="#6f6f6f" stroke-width="0" points="560,-217 444,-217 444,-194 560,-194 560,-217"/>
<text text-anchor="middle" x="502" y="-201.8" font-family="Fira Code" font-size="14.00" fill="#6f6f6f">(⊤, TKL * 8, ⋆)</text>
</g>
<!-- Message_ID&#45;&gt;intermediate_6 -->
<g id="edge13" class="edge">
<title>Message_ID&#45;&gt;intermediate_6</title>
<path fill="none" stroke="#6f6f6f" stroke-width="2.5" d="M502,-224.67C502,-222.13 502,-219.59 502,-217.24"/>
</g>
<!-- Token -->
<g id="node11" class="node">
<title>Token</title>
<path fill="#009641" stroke="#6f6f6f" d="M544,-186C544,-186 460,-186 460,-186 454,-186 448,-180 448,-174 448,-174 448,-162 448,-162 448,-156 454,-150 460,-150 460,-150 544,-150 544,-150 550,-150 556,-156 556,-162 556,-162 556,-174 556,-174 556,-180 550,-186 544,-186"/>
<text text-anchor="middle" x="502" y="-164.3" font-family="Arimo" font-size="14.00" fill="#ffffff">Token</text>
</g>
<!-- intermediate_13 -->
<g id="node27" class="node">
<title>intermediate_13</title>
<polygon fill="none" stroke="#6f6f6f" stroke-width="0" points="624.5,-142 379.5,-142 379.5,-119 624.5,-119 624.5,-142"/>
<text text-anchor="middle" x="502" y="-126.8" font-family="Fira Code" font-size="14.00" fill="#6f6f6f">(⊤, Message&#39;Last &#45; Token&#39;Last, ⋆)</text>
</g>
<!-- Token&#45;&gt;intermediate_13 -->
<g id="edge27" class="edge">
<title>Token&#45;&gt;intermediate_13</title>
<path fill="none" stroke="#6f6f6f" stroke-width="2.5" d="M502,-149.67C502,-147.13 502,-144.59 502,-142.24"/>
</g>
<!-- Options_And_Payload -->
<g id="node12" class="node">
<title>Options_And_Payload</title>
<path fill="#009641" stroke="#6f6f6f" d="M566,-111C566,-111 438,-111 438,-111 432,-111 426,-105 426,-99 426,-99 426,-87 426,-87 426,-81 432,-75 438,-75 438,-75 566,-75 566,-75 572,-75 578,-81 578,-87 578,-87 578,-99 578,-99 578,-105 572,-111 566,-111"/>
<text text-anchor="middle" x="502" y="-89.3" font-family="Arimo" font-size="14.00" fill="#ffffff">Options_And_Payload</text>
</g>
<!-- intermediate_8 -->
<g id="node21" class="node">
<title>intermediate_8</title>
<polygon fill="none" stroke="#6f6f6f" stroke-width="0" points="539.5,-67 464.5,-67 464.5,-44 539.5,-44 539.5,-67"/>
<text text-anchor="middle" x="502" y="-51.8" font-family="Fira Code" font-size="14.00" fill="#6f6f6f">(⊤, 0, ⋆)</text>
</g>
<!-- Options_And_Payload&#45;&gt;intermediate_8 -->
<g id="edge17" class="edge">
<title>Options_And_Payload&#45;&gt;intermediate_8</title>
<path fill="none" stroke="#6f6f6f" stroke-width="2.5" d="M502,-74.67C502,-72.13 502,-69.59 502,-67.24"/>
</g>
<!-- intermediate_0&#45;&gt;Client_Error_Code -->
<g id="edge2" class="edge">
<title>intermediate_0&#45;&gt;Client_Error_Code</title>
<path fill="none" stroke="#6f6f6f" stroke-width="2.5" d="M149.1,-343.85C152.2,-342.59 155.44,-341.26 158.74,-339.92"/>
<polygon fill="#6f6f6f" stroke="#6f6f6f" stroke-width="2.5" points="160.2,-343.1 168.13,-336.08 157.55,-336.62 160.2,-343.1"/>
</g>
<!-- intermediate_1&#45;&gt;Method -->
<g id="edge4" class="edge">
<title>intermediate_1&#45;&gt;Method</title>
<path fill="none" stroke="#6f6f6f" stroke-width="2.5" d="M383.86,-343.66C383.98,-343.51 384.1,-343.36 384.22,-343.21"/>
<polygon fill="#6f6f6f" stroke="#6f6f6f" stroke-width="2.5" points="386.34,-346.15 389.96,-336.19 380.92,-341.72 386.34,-346.15"/>
</g>
<!-- intermediate_2&#45;&gt;Server_Error_Code -->
<g id="edge6" class="edge">
<title>intermediate_2&#45;&gt;Server_Error_Code</title>
<path fill="none" stroke="#6f6f6f" stroke-width="2.5" d="M621.14,-343.66C621.02,-343.51 620.9,-343.36 620.78,-343.21"/>
<polygon fill="#6f6f6f" stroke="#6f6f6f" stroke-width="2.5" points="624.08,-341.72 615.04,-336.19 618.66,-346.15 624.08,-341.72"/>
</g>
<!-- intermediate_3&#45;&gt;Success_Code -->
<g id="edge8" class="edge">
<title>intermediate_3&#45;&gt;Success_Code</title>
<path fill="none" stroke="#6f6f6f" stroke-width="2.5" d="M867.6,-343.85C866.35,-343.08 865.06,-342.3 863.75,-341.5"/>
<polygon fill="#6f6f6f" stroke="#6f6f6f" stroke-width="2.5" points="865.27,-338.32 854.91,-336.08 861.61,-344.29 865.27,-338.32"/>
</g>
<!-- intermediate_4&#45;&gt;Message_ID -->
<g id="edge10" class="edge">
<title>intermediate_4&#45;&gt;Message_ID</title>
<path fill="none" stroke="#6f6f6f" stroke-width="2.5" d="M322.02,-272.78C354.65,-267.56 400.46,-260.24 437.7,-254.28"/>
<polygon fill="#6f6f6f" stroke="#6f6f6f" stroke-width="2.5" points="438.63,-257.68 447.95,-252.64 437.52,-250.77 438.63,-257.68"/>
</g>
<!-- intermediate_5&#45;&gt;Ver -->
<g id="edge12" class="edge">
<title>intermediate_5&#45;&gt;Ver</title>
<path fill="none" stroke="#6f6f6f" stroke-width="2.5" d="M502,-643.66C502,-643.51 502,-643.36 502,-643.21"/>
<polygon fill="#6f6f6f" stroke="#6f6f6f" stroke-width="2.5" points="505.5,-646.19 502,-636.19 498.5,-646.19 505.5,-646.19"/>
</g>
<!-- intermediate_6&#45;&gt;Token -->
<g id="edge14" class="edge">
<title>intermediate_6&#45;&gt;Token</title>
<path fill="none" stroke="#6f6f6f" stroke-width="2.5" d="M502,-193.66C502,-193.51 502,-193.36 502,-193.21"/>
<polygon fill="#6f6f6f" stroke="#6f6f6f" stroke-width="2.5" points="505.5,-196.19 502,-186.19 498.5,-196.19 505.5,-196.19"/>
</g>
<!-- intermediate_7&#45;&gt;Message_ID -->
<g id="edge16" class="edge">
<title>intermediate_7&#45;&gt;Message_ID</title>
<path fill="none" stroke="#6f6f6f" stroke-width="2.5" d="M450.2,-268.85C452.44,-267.78 454.76,-266.66 457.13,-265.53"/>
<polygon fill="#6f6f6f" stroke="#6f6f6f" stroke-width="2.5" points="458.89,-268.56 466.39,-261.08 455.86,-262.25 458.89,-268.56"/>
</g>
<!-- Final -->
<g id="node22" class="node">
<title>Final</title>
<ellipse fill="#6f6f6f" stroke="#6f6f6f" cx="502" cy="-18" rx="18" ry="18"/>
</g>
<!-- intermediate_8&#45;&gt;Final -->
<g id="edge18" class="edge">
<title>intermediate_8&#45;&gt;Final</title>
<path fill="none" stroke="#6f6f6f" stroke-width="2.5" d="M502,-43.66C502,-43.51 502,-43.36 502,-43.21"/>
<polygon fill="#6f6f6f" stroke="#6f6f6f" stroke-width="2.5" points="505.5,-46.19 502,-36.19 498.5,-46.19 505.5,-46.19"/>
</g>
<!-- intermediate_9&#45;&gt;Message_ID -->
<g id="edge20" class="edge">
<title>intermediate_9&#45;&gt;Message_ID</title>
<path fill="none" stroke="#6f6f6f" stroke-width="2.5" d="M554.5,-268.85C552.15,-267.74 549.71,-266.58 547.22,-265.41"/>
<polygon fill="#6f6f6f" stroke="#6f6f6f" stroke-width="2.5" points="548.63,-262.2 538.09,-261.08 545.63,-268.53 548.63,-262.2"/>
</g>
<!-- intermediate_10&#45;&gt;Message_ID -->
<g id="edge22" class="edge">
<title>intermediate_10&#45;&gt;Message_ID</title>
<path fill="none" stroke="#6f6f6f" stroke-width="2.5" d="M722.74,-273.8C680.59,-268.11 615.25,-259.29 566.59,-252.72"/>
<polygon fill="#6f6f6f" stroke="#6f6f6f" stroke-width="2.5" points="566.85,-249.22 556.47,-251.35 565.91,-256.16 566.85,-249.22"/>
</g>
<!-- intermediate_11&#45;&gt;TKL -->
<g id="edge24" class="edge">
<title>intermediate_11&#45;&gt;TKL</title>
<path fill="none" stroke="#6f6f6f" stroke-width="2.5" d="M502,-493.66C502,-493.51 502,-493.36 502,-493.21"/>
<polygon fill="#6f6f6f" stroke="#6f6f6f" stroke-width="2.5" points="505.5,-496.19 502,-486.19 498.5,-496.19 505.5,-496.19"/>
</g>
<!-- intermediate_12&#45;&gt;Class -->
<g id="edge26" class="edge">
<title>intermediate_12&#45;&gt;Class</title>
<path fill="none" stroke="#6f6f6f" stroke-width="2.5" d="M502,-418.66C502,-418.51 502,-418.36 502,-418.21"/>
<polygon fill="#6f6f6f" stroke="#6f6f6f" stroke-width="2.5" points="505.5,-421.19 502,-411.19 498.5,-421.19 505.5,-421.19"/>
</g>
<!-- intermediate_13&#45;&gt;Options_And_Payload -->
<g id="edge28" class="edge">
<title>intermediate_13&#45;&gt;Options_And_Payload</title>
<path fill="none" stroke="#6f6f6f" stroke-width="2.5" d="M502,-118.66C502,-118.51 502,-118.36 502,-118.21"/>
<polygon fill="#6f6f6f" stroke="#6f6f6f" stroke-width="2.5" points="505.5,-121.19 502,-111.19 498.5,-121.19 505.5,-121.19"/>
</g>
<!-- intermediate_14&#45;&gt;T -->
<g id="edge30" class="edge">
<title>intermediate_14&#45;&gt;T</title>
<path fill="none" stroke="#6f6f6f" stroke-width="2.5" d="M502,-568.66C502,-568.51 502,-568.36 502,-568.21"/>
<polygon fill="#6f6f6f" stroke="#6f6f6f" stroke-width="2.5" points="505.5,-571.19 502,-561.19 498.5,-571.19 505.5,-571.19"/>
</g>
</g>
</svg>
